<?xml version="1.0" encoding="utf-8"?>
<!-- Generator: Adobe Illustrator 13.0.0, SVG Export Plug-In  -->
<!DOCTYPE svg PUBLIC "-//W3C//DTD SVG 1.1//EN" "http://www.w3.org/Graphics/SVG/1.1/DTD/svg11.dtd" [
	<!ENTITY ns_flows "http://ns.adobe.com/Flows/1.0/">
]>
<svg version="1.1"
	 xmlns="http://www.w3.org/2000/svg" xmlns:xlink="http://www.w3.org/1999/xlink" xmlns:a="http://ns.adobe.com/AdobeSVGViewerExtensions/3.0/"
	 x="0px" y="0px" width="210px" height="94px" viewBox="0 0 210 94" enable-background="new 0 0 210 94" xml:space="preserve">
<defs>
</defs>
<g>
	<defs>
		<rect id="SVGID_1_" width="209.979" height="93.777"/>
	</defs>
	<clipPath id="SVGID_2_">
		<use xlink:href="#SVGID_1_"  overflow="visible"/>
	</clipPath>
	<path clip-path="url(#SVGID_2_)" fill="#512178" d="M57.942,91.548v-4.621c0-0.574-0.096-1.08-0.286-1.52
		c-0.179-0.443-0.452-0.816-0.819-1.127c-0.721-0.609-1.711-0.912-2.973-0.912c-0.533,0-1.001,0.037-1.407,0.113
		c-0.406,0.08-0.772,0.176-1.094,0.295c-0.322,0.117-0.603,0.25-0.839,0.387c-0.24,0.141-0.443,0.281-0.61,0.426l0.03,0.043
		c-0.003,0.002-0.006,0.004-0.008,0.006l0.882,1.279c0.293-0.209,0.658-0.416,1.092-0.617c0.434-0.205,1.023-0.305,1.765-0.305
		c0.758,0,1.357,0.154,1.798,0.471c0.213,0.152,0.373,0.355,0.482,0.604c0.104,0.254,0.156,0.555,0.156,0.91v0.357
		c-0.068-0.014-0.189-0.027-0.356-0.041c-0.168-0.014-0.365-0.029-0.588-0.041c-0.224-0.018-0.461-0.031-0.715-0.045
		c-0.251-0.012-0.491-0.021-0.714-0.021c-1.386,0-2.448,0.316-3.184,0.947s-1.104,1.471-1.104,2.521
		c0,0.443,0.067,0.828,0.194,1.164c0.04,0.105,0.083,0.209,0.133,0.305c0.203,0.387,0.47,0.705,0.799,0.947
		c0.328,0.244,0.693,0.42,1.092,0.523c0.399,0.107,0.803,0.158,1.209,0.158c0.63,0,1.243-0.117,1.838-0.355
		c0.585-0.234,1.058-0.592,1.418-1.072l0.041,1.105h0.02l0.001,0.051h1.765c-0.014-0.238-0.021-0.531-0.021-0.871V91.548z
		 M51.451,91.316c-0.083-0.195-0.126-0.416-0.126-0.67c0-0.211,0.034-0.43,0.104-0.662c0.069-0.229,0.201-0.439,0.387-0.629
		c0.189-0.189,0.45-0.348,0.779-0.477c0.328-0.125,0.759-0.186,1.293-0.186c0.224,0,0.454,0.008,0.691,0.02
		c0.239,0.014,0.464,0.029,0.674,0.041c0.21,0.016,0.396,0.033,0.556,0.055c0.147,0.018,0.245,0.033,0.303,0.045v1.072
		c0,0.293-0.078,0.578-0.229,0.861c-0.156,0.277-0.357,0.521-0.61,0.732c-0.251,0.211-0.542,0.379-0.872,0.506
		c-0.331,0.125-0.677,0.189-1.042,0.189c-0.644,0-1.148-0.139-1.512-0.41C51.673,91.671,51.542,91.507,51.451,91.316"/>
	<path clip-path="url(#SVGID_2_)" fill="#512178" d="M67.968,89.562c-0.006-0.01-0.008-0.025-0.013-0.035
		c-0.177-0.338-0.413-0.621-0.714-0.857c-0.303-0.229-0.652-0.42-1.052-0.564c-0.398-0.148-0.83-0.277-1.292-0.387
		c-0.785-0.184-1.418-0.375-1.903-0.58c-0.344-0.146-0.56-0.35-0.658-0.604c-0.027-0.086-0.043-0.182-0.043-0.279
		c0-0.451,0.181-0.771,0.546-0.967c0.363-0.197,0.847-0.293,1.451-0.293c0.588,0,1.103,0.09,1.543,0.271
		c0.44,0.184,0.81,0.406,1.104,0.672l1.029-1.301c-0.012-0.01-0.025-0.018-0.04-0.027l0.019-0.021
		c-0.449-0.395-0.971-0.701-1.566-0.918c-0.594-0.217-1.305-0.328-2.131-0.328c-0.491,0-0.964,0.066-1.419,0.189
		c-0.457,0.127-0.867,0.314-1.229,0.559c-0.366,0.244-0.657,0.549-0.874,0.904c-0.217,0.355-0.326,0.773-0.326,1.252
		c0,0.361,0.061,0.686,0.174,0.967c0.034,0.096,0.074,0.184,0.122,0.271c0.182,0.326,0.42,0.607,0.714,0.84
		c0.295,0.229,0.627,0.416,0.999,0.553c0.37,0.143,0.746,0.256,1.125,0.338c0.532,0.129,0.976,0.242,1.333,0.35
		c0.356,0.104,0.644,0.221,0.861,0.344c0.214,0.125,0.366,0.27,0.456,0.428c0.076,0.15,0.121,0.326,0.121,0.531
		c0,0.434-0.211,0.754-0.633,0.957c-0.42,0.203-0.945,0.303-1.574,0.303c-0.644,0-1.212-0.104-1.701-0.314
		c-0.491-0.209-0.911-0.492-1.262-0.838l-1.156,1.258c0.011,0.014,0.025,0.023,0.036,0.035l-0.015,0.016
		c0.925,0.996,2.313,1.492,4.162,1.492c0.532,0,1.043-0.062,1.534-0.189c0.488-0.123,0.925-0.312,1.302-0.566
		c0.379-0.254,0.68-0.564,0.904-0.936c0.223-0.371,0.337-0.801,0.337-1.291c0-0.479-0.088-0.885-0.264-1.219
		C67.975,89.572,67.97,89.568,67.968,89.562"/>
	<path clip-path="url(#SVGID_2_)" fill="#512178" d="M77.888,89.562c-0.006-0.01-0.008-0.025-0.016-0.035
		c-0.174-0.338-0.414-0.621-0.714-0.857c-0.3-0.229-0.651-0.42-1.052-0.564c-0.398-0.148-0.829-0.277-1.291-0.387
		c-0.785-0.184-1.418-0.375-1.902-0.58c-0.344-0.146-0.56-0.35-0.658-0.604c-0.029-0.086-0.045-0.182-0.045-0.279
		c0-0.451,0.183-0.771,0.549-0.967c0.363-0.197,0.847-0.293,1.449-0.293c0.587,0,1.102,0.09,1.543,0.271
		c0.441,0.184,0.81,0.406,1.104,0.672l1.03-1.301c-0.014-0.01-0.029-0.018-0.041-0.027l0.017-0.021
		c-0.447-0.395-0.97-0.701-1.564-0.918c-0.597-0.217-1.308-0.328-2.134-0.328c-0.49,0-0.962,0.066-1.418,0.189
		c-0.455,0.127-0.865,0.314-1.229,0.559c-0.364,0.244-0.656,0.549-0.872,0.904c-0.217,0.355-0.325,0.773-0.325,1.252
		c0,0.361,0.058,0.686,0.172,0.967c0.036,0.096,0.076,0.184,0.123,0.271c0.181,0.326,0.42,0.607,0.715,0.84
		c0.292,0.229,0.627,0.416,0.997,0.553c0.372,0.143,0.747,0.256,1.124,0.338c0.533,0.129,0.979,0.242,1.334,0.35
		c0.357,0.104,0.645,0.221,0.863,0.344c0.214,0.125,0.363,0.27,0.455,0.428c0.078,0.15,0.12,0.326,0.12,0.531
		c0,0.434-0.21,0.754-0.63,0.957c-0.421,0.203-0.945,0.303-1.576,0.303c-0.643,0-1.211-0.104-1.702-0.314
		c-0.491-0.209-0.911-0.492-1.261-0.838l-1.154,1.258c0.011,0.014,0.024,0.023,0.035,0.035l-0.014,0.016
		c0.924,0.996,2.311,1.492,4.158,1.492c0.535,0,1.046-0.062,1.535-0.189c0.49-0.123,0.924-0.312,1.303-0.566
		c0.38-0.254,0.682-0.564,0.904-0.936c0.225-0.371,0.336-0.801,0.336-1.291c0-0.479-0.088-0.885-0.261-1.219
		C77.894,89.57,77.89,89.568,77.888,89.562"/>
	<path clip-path="url(#SVGID_2_)" fill="#512178" d="M89.834,86.544c-0.003-0.006-0.003-0.012-0.005-0.016
		c-0.258-0.623-0.621-1.174-1.082-1.648c-0.462-0.477-1.008-0.85-1.639-1.127c-0.631-0.271-1.317-0.41-2.061-0.41
		c-0.756,0-1.449,0.139-2.08,0.41c-0.63,0.277-1.173,0.65-1.629,1.127c-0.455,0.475-0.812,1.025-1.07,1.648
		c-0.26,0.623-0.389,1.291-0.389,2.008c0,0.713,0.129,1.385,0.389,2.006c0.004,0.012,0.011,0.023,0.016,0.035
		c0.002,0.006,0.004,0.012,0.006,0.016c0.26,0.623,0.616,1.176,1.071,1.65c0.456,0.477,0.999,0.852,1.628,1.123
		c0.632,0.275,1.324,0.41,2.082,0.41c0.742,0,1.43-0.135,2.06-0.41c0.63-0.271,1.176-0.646,1.64-1.123
		c0.461-0.475,0.822-1.027,1.08-1.65c0.26-0.621,0.389-1.289,0.389-2.006c0-0.713-0.129-1.385-0.389-2.008
		C89.845,86.568,89.839,86.556,89.834,86.544 M88.306,88.537c0,0.447-0.074,0.885-0.221,1.312c-0.146,0.426-0.359,0.807-0.641,1.137
		c-0.281,0.328-0.623,0.596-1.029,0.799s-0.863,0.303-1.367,0.303c-0.502,0-0.955-0.1-1.355-0.303
		c-0.398-0.203-0.742-0.477-1.029-0.811c-0.277-0.324-0.484-0.689-0.629-1.092c-0.146-0.416-0.221-0.85-0.221-1.295
		c0-0.449,0.074-0.885,0.221-1.312s0.361-0.805,0.641-1.137c0.281-0.33,0.623-0.596,1.029-0.797
		c0.406-0.207,0.863-0.307,1.367-0.307c0.505,0,0.956,0.1,1.355,0.307c0.398,0.201,0.74,0.473,1.029,0.807
		c0.276,0.326,0.483,0.693,0.629,1.1C88.231,87.675,88.306,88.101,88.306,88.537"/>
	<path clip-path="url(#SVGID_2_)" fill="#512178" d="M115.31,91.548v-4.621c0-0.576-0.098-1.082-0.288-1.521
		c-0.181-0.443-0.453-0.814-0.817-1.125c-0.723-0.609-1.713-0.912-2.973-0.912c-0.533,0-1.003,0.037-1.409,0.113
		c-0.406,0.08-0.77,0.176-1.093,0.295c-0.323,0.117-0.603,0.25-0.84,0.387c-0.238,0.141-0.441,0.281-0.61,0.426l0.032,0.043
		c-0.004,0.002-0.008,0.004-0.01,0.006l0.883,1.279c0.295-0.209,0.658-0.416,1.093-0.617c0.435-0.205,1.024-0.305,1.766-0.305
		c0.756,0,1.354,0.154,1.796,0.471c0.215,0.152,0.371,0.355,0.481,0.602c0.104,0.256,0.158,0.557,0.158,0.912v0.357
		c-0.069-0.014-0.188-0.027-0.357-0.041c-0.166-0.014-0.363-0.029-0.589-0.041c-0.224-0.018-0.461-0.031-0.713-0.045
		c-0.253-0.012-0.49-0.021-0.715-0.021c-1.387,0-2.447,0.316-3.186,0.949c-0.734,0.629-1.102,1.469-1.102,2.52
		c0,0.562,0.102,1.033,0.305,1.418c0.009,0.016,0.014,0.035,0.021,0.051c0.204,0.387,0.472,0.703,0.8,0.947
		c0.329,0.244,0.692,0.42,1.092,0.523c0.399,0.107,0.803,0.158,1.208,0.158c0.63,0,1.243-0.117,1.84-0.355
		c0.586-0.234,1.057-0.59,1.42-1.072l0.039,1.105h0.023l0.001,0.051h1.763c-0.013-0.238-0.02-0.529-0.02-0.871V91.548z
		 M108.815,91.318c-0.083-0.195-0.127-0.418-0.127-0.672c0-0.211,0.035-0.43,0.105-0.662c0.07-0.229,0.2-0.439,0.389-0.629
		c0.191-0.189,0.448-0.348,0.777-0.477c0.33-0.125,0.762-0.186,1.293-0.186c0.224,0,0.454,0.008,0.694,0.02
		c0.237,0.014,0.461,0.029,0.671,0.041c0.211,0.016,0.396,0.033,0.559,0.055c0.145,0.018,0.242,0.033,0.302,0.045v1.072
		c0,0.293-0.077,0.578-0.231,0.861c-0.154,0.277-0.356,0.521-0.61,0.732c-0.251,0.211-0.542,0.379-0.87,0.506
		c-0.33,0.125-0.678,0.189-1.039,0.189c-0.645,0-1.15-0.139-1.514-0.41C109.037,91.671,108.907,91.509,108.815,91.318"/>
	<path clip-path="url(#SVGID_2_)" fill="#512178" d="M140.095,86.541c-0.001-0.004-0.002-0.008-0.004-0.012
		c-0.258-0.623-0.621-1.174-1.082-1.648c-0.461-0.477-1.009-0.85-1.639-1.127c-0.631-0.271-1.316-0.41-2.059-0.41
		c-0.76,0-1.451,0.139-2.082,0.41c-0.63,0.277-1.173,0.65-1.629,1.127c-0.454,0.475-0.812,1.025-1.07,1.648
		c-0.262,0.623-0.389,1.291-0.389,2.008c0,0.713,0.127,1.385,0.389,2.006c0.005,0.014,0.012,0.025,0.016,0.037
		c0.003,0.006,0.004,0.01,0.006,0.014c0.26,0.623,0.616,1.176,1.072,1.65c0.455,0.477,0.998,0.852,1.629,1.123
		c0.633,0.275,1.321,0.41,2.082,0.41c0.74,0,1.426-0.135,2.059-0.41c0.629-0.271,1.176-0.646,1.637-1.123
		c0.461-0.475,0.824-1.027,1.082-1.65c0.26-0.621,0.389-1.289,0.389-2.006c0-0.713-0.129-1.385-0.389-2.008
		C140.106,86.566,140.101,86.554,140.095,86.541 M138.567,88.537c0,0.447-0.072,0.885-0.222,1.312
		c-0.145,0.426-0.36,0.807-0.64,1.137c-0.28,0.328-0.624,0.596-1.029,0.799c-0.406,0.203-0.861,0.303-1.365,0.303
		s-0.959-0.1-1.357-0.303s-0.741-0.477-1.029-0.811c-0.273-0.322-0.482-0.689-0.631-1.09c-0.145-0.418-0.219-0.852-0.219-1.297
		c0-0.449,0.074-0.885,0.221-1.312c0.148-0.428,0.362-0.805,0.64-1.137c0.281-0.33,0.626-0.596,1.03-0.797
		c0.406-0.207,0.863-0.307,1.369-0.307c0.502,0,0.955,0.1,1.352,0.307c0.4,0.201,0.743,0.473,1.031,0.807
		c0.275,0.326,0.484,0.693,0.629,1.096C138.495,87.673,138.567,88.101,138.567,88.537"/>
	<path clip-path="url(#SVGID_2_)" fill="#512178" d="M14.185,3.822c-0.566,0.284-1.09,0.482-1.571,0.595
		c-0.482,0.114-1.092,0.285-1.827,0.51l-2.463,0.85C7.249,6.231,6.229,6.74,5.266,7.306C4.304,7.872,3.424,8.495,2.634,9.175
		c0.054-0.113,0.139-0.212,0.254-0.297C3,8.792,3.085,8.694,3.144,8.58C2.858,8.694,2.661,8.835,2.548,9.005
		c-0.114,0.17-0.285,0.339-0.51,0.51L1.7,9.854c-0.455,0.396-0.766,0.879-0.936,1.444c-0.169,0.566-0.339,1.162-0.51,1.785
		C0.199,13.026,0.17,12.97,0.17,12.912c0-0.055,0.015-0.112,0.042-0.171c0.028-0.055,0.042-0.111,0.042-0.168
		c-0.113,0.113-0.168,0.212-0.168,0.297c0,0.084-0.027,0.156-0.085,0.213c0,1.02,0.015,1.953,0.042,2.802
		c0.03,0.849,0.158,1.728,0.383,2.634c0.058,0.113,0.113,0.254,0.17,0.425c0.055,0.171,0.085,0.312,0.085,0.425
		s-0.017,0.283-0.043,0.51c-0.029,0.227-0.042,0.396-0.042,0.51c0.055,0.285,0.085,0.736,0.085,1.358l-0.085,0.256v0.51
		c0.113,0.339,0.212,0.665,0.297,0.976C0.978,23.8,1.074,24.097,1.19,24.38l0.254,0.424c0,1.359,0.48,2.634,1.444,3.822
		c0.963,1.19,2.01,2.209,3.144,3.059c1.132,0.849,2.151,1.529,3.058,2.039l5.352,2.633c0.054,0.114,0.366,0.269,0.934,0.467
		c0.564,0.199,1.159,0.425,1.783,0.681c0.623,0.254,1.19,0.496,1.7,0.722c0.51,0.227,0.793,0.397,0.849,0.51
		c-0.056,0.113,0.027,0.171,0.256,0.171c0.055-0.058,0.113-0.085,0.169-0.085c0.113,0.113,0.242,0.185,0.383,0.211
		c0.139,0.029,0.269,0.1,0.382,0.213l0.339,0.254l0.766,0.256c0.112,0.17,0.295,0.297,0.551,0.383
		c0.254,0.083,0.522,0.184,0.807,0.295c0.793,0.396,1.571,0.822,2.336,1.275c0.764,0.453,1.499,0.921,2.207,1.402
		c0.708,0.48,1.304,0.934,1.786,1.359c0.479,0.424,0.721,0.75,0.721,0.976c0,0.113-0.03,0.198-0.085,0.256l0.254-0.085
		c-0.737,0.962-1.599,1.783-2.591,2.463c-0.992,0.68-2.054,1.33-3.186,1.953c-0.058-0.055-0.114-0.086-0.171-0.086
		c-0.339,0-0.821,0.242-1.443,0.723c-0.624,0.482-1.246,0.721-1.868,0.721c-0.339,0.115-0.708,0.213-1.104,0.299
		c-0.398,0.086-0.764,0.156-1.105,0.211c-0.678-0.055-1.346-0.041-1.995,0.045c-0.651,0.084-1.345,0.127-2.081,0.127
		c-0.624,0-1.573-0.043-2.846-0.127c-1.276-0.086-2.563-0.213-3.866-0.383c-1.304-0.172-2.436-0.396-3.397-0.68
		c-0.963-0.283-1.444-0.65-1.444-1.104l0.085-0.256c-0.341-0.227-0.595-0.41-0.766-0.551c-0.168-0.143-0.312-0.27-0.424-0.383
		c-0.114-0.113-0.2-0.254-0.254-0.426c-0.058-0.17-0.144-0.395-0.256-0.68C1.7,47.88,1.571,48.306,1.485,48.759
		c-0.083,0.453-0.183,0.904-0.295,1.357c-0.116,0.512-0.2,1.021-0.256,1.529l0.085,1.785l-0.171,0.68
		c-0.056,0.17-0.114,0.367-0.168,0.594c-0.058,0.227-0.085,0.398-0.085,0.512c0.113,0.338,0.169,0.592,0.169,0.762
		c0,0.34-0.056,0.568-0.169,0.682v0.594c0,0.396-0.014,0.678-0.043,0.85c-0.029,0.168-0.099,0.48-0.212,0.934
		c0.058,0.115,0.1,0.285,0.129,0.51c0.028,0.227,0.069,0.367,0.126,0.424c-0.058,0.115-0.198,0.285-0.424,0.51
		c0.056,0.115,0.141,0.254,0.254,0.426c0.113,0.17,0.225,0.311,0.339,0.424c0,0.398,0.099,0.654,0.297,0.766
		c0.198,0.115,0.41,0.254,0.639,0.424l0.51,0.254c1.698,0.965,3.227,1.615,4.585,1.953c1.36,0.342,2.619,0.555,3.78,0.639
		c1.16,0.084,2.265,0.1,3.313,0.043c1.048-0.059,2.082-0.059,3.102,0c0.225,0.057,0.51,0.086,0.849,0.086
		c0.396,0,0.906-0.029,1.529-0.086c0.622-0.059,1.246-0.141,1.869-0.254c0.622-0.115,1.231-0.229,1.826-0.342
		c0.596-0.111,1.091-0.254,1.486-0.424c0.115-0.055,0.396-0.17,0.85-0.34c0.452-0.17,0.735-0.256,0.85-0.256
		c0.057,0.059,0.112,0.086,0.17,0.086c0.903-0.283,1.954-0.707,3.142-1.273c1.982-1.189,3.738-2.463,5.268-3.824
		c0.281-0.055,0.493-0.182,0.637-0.381c0.14-0.197,0.266-0.41,0.382-0.639l0.339-0.424c0.453-0.564,0.777-1.201,0.977-1.91
		c0.198-0.707,0.439-1.43,0.721-2.166c0,0.113-0.014,0.213-0.041,0.295c-0.029,0.086-0.042,0.186-0.042,0.299
		c0.168-0.168,0.253-0.424,0.253-0.764v-1.02c0-1.021-0.014-1.812-0.041-2.379c-0.031-0.566-0.13-1.275-0.298-2.124
		c-0.114-0.283-0.199-0.523-0.255-0.723c-0.057-0.197-0.083-0.438-0.083-0.721c0-0.227,0.055-0.567,0.168-1.02
		c-0.057-0.284-0.085-0.537-0.085-0.765v-0.851c0.056-0.055,0.085-0.197,0.085-0.424v-0.679c-0.114-0.396-0.212-0.752-0.298-1.063
		c-0.085-0.311-0.127-0.664-0.127-1.061l-0.253-0.681c0-1.132-0.256-2.237-0.766-3.312c-0.51-1.076-1.104-2.038-1.783-2.888
		c-0.68-0.851-1.389-1.572-2.124-2.166c-0.737-0.594-1.332-1.005-1.784-1.23c-2.152-1.076-4.135-2.125-5.946-3.145
		c-1.813-1.02-3.738-1.953-5.777-2.803c-0.397-0.283-1.02-0.607-1.868-0.977c-0.849-0.369-1.671-0.723-2.463-1.062
		c-0.794-0.341-1.502-0.667-2.124-0.978c-0.625-0.311-0.963-0.552-1.02-0.723c0.057-0.111,0.198-0.24,0.425-0.383
		c0.227-0.141,0.454-0.213,0.681-0.213c2.49-1.019,5.322-1.74,8.495-2.165c3.17-0.425,6.37-0.637,9.599-0.637h1.359
		c0.225,0,0.396,0.028,0.509,0.085c0-0.057,0.086-0.113,0.254-0.17c0.171-0.055,0.256-0.113,0.256-0.168h0.51
		c0.112-0.229,0.168-0.428,0.168-0.596c-0.168-0.225-0.227-0.369-0.168-0.424c0.055-0.058,0.084-0.143,0.084-0.256
		s-0.016-0.213-0.043-0.298c-0.028-0.085-0.041-0.185-0.041-0.298c0-0.112,0.013-0.197,0.041-0.254
		c0.028-0.057,0.043-0.143,0.043-0.256v-0.424c0-0.055,0.014-0.113,0.042-0.169c0.027-0.058,0.042-0.142,0.042-0.256v-0.51
		c-0.113-0.112-0.168-0.311-0.168-0.595c0-0.17,0.027-0.281,0.084-0.34c-0.115-0.226-0.213-0.383-0.296-0.469
		c-0.085-0.082-0.129-0.266-0.129-0.551c0.114-0.113,0.198-0.24,0.255-0.383c0.055-0.141,0.141-0.267,0.254-0.381
		c-0.113-0.227-0.168-0.48-0.168-0.766c0-0.055,0.013-0.111,0.041-0.17c0.028-0.055,0.043-0.113,0.043-0.169
		c0-0.226-0.016-0.368-0.043-0.425c-0.028-0.057-0.041-0.111-0.041-0.17c0.055-0.793,0.168-1.33,0.339-1.614
		c-0.058-0.056-0.086-0.141-0.086-0.254c0-0.112,0.013-0.198,0.044-0.256c0.027-0.056,0.042-0.14,0.042-0.254
		c0-0.341-0.058-0.496-0.171-0.468c-0.113,0.03-0.168-0.069-0.168-0.298c0-0.112,0.055-0.282,0.168-0.51l-0.254-0.425V3.653"/>
	<path clip-path="url(#SVGID_2_)" fill="#512178" d="M20.556,16.733c-0.169,0-0.396,0.031-0.679,0.086
		c-0.795,0.113-1.601,0.242-2.422,0.383s-1.629,0.297-2.419,0.466c0.452-0.226,0.961-0.366,1.529-0.425
		c0.564-0.055,1.132-0.197,1.698-0.424c0.283,0.059,0.537,0.027,0.766-0.086c0.225-0.112,0.424-0.112,0.593,0
		c0.283-0.055,0.539-0.112,0.766-0.168c0.226-0.057,0.425-0.057,0.595,0C20.868,16.679,20.726,16.733,20.556,16.733"/>
	<path clip-path="url(#SVGID_2_)" fill="#512178" d="M22.977,16.479c-0.424,0.057-0.807,0.086-1.146,0.086
		c-0.114,0-0.227,0.028-0.339,0.085c-0.116,0.056-0.229,0.028-0.341-0.085c0.113-0.113,0.212-0.156,0.298-0.129
		c0.085,0.029,0.184,0.016,0.297-0.042c0.284,0,0.607-0.027,0.977-0.085c0.367-0.055,0.691-0.113,0.977-0.169
		c0.283,0,0.48,0.056,0.594,0.169C23.838,16.367,23.401,16.423,22.977,16.479"/>
	<path clip-path="url(#SVGID_2_)" fill="#512178" d="M25.228,8.58c0.113,0.057,0.24,0.057,0.383,0
		c0.141-0.057,0.267-0.026,0.381,0.085c-0.114,0.114-0.227,0.142-0.339,0.084c-0.114-0.055-0.227-0.084-0.339-0.084
		c-0.114,0-0.256,0.029-0.424,0.084c-0.17,0.058-0.341,0.03-0.51-0.084C24.492,8.608,24.774,8.58,25.228,8.58"/>
	<path clip-path="url(#SVGID_2_)" fill="#512178" d="M23.445,8.707c0.113-0.026,0.198-0.042,0.254-0.042
		c0.225,0,0.31,0.057,0.256,0.169c-0.117,0.058-0.285,0.058-0.51,0c-0.228-0.054-0.425,0-0.595,0.171
		c-0.17-0.057-0.27-0.057-0.297,0c-0.028,0.058-0.1,0.029-0.212-0.086C22.963,8.807,23.332,8.735,23.445,8.707"/>
	<path clip-path="url(#SVGID_2_)" fill="#512178" d="M18.009,8.749h0.339c-0.058,0.115-0.185,0.158-0.382,0.129
		c-0.2-0.029-0.354,0.041-0.466,0.212c-0.229-0.057-0.412-0.044-0.553,0.042c-0.142,0.085-0.354,0.072-0.637-0.042l1.444-0.256
		C17.81,8.779,17.895,8.749,18.009,8.749"/>
	<path clip-path="url(#SVGID_2_)" fill="#512178" d="M15.545,5.776c0.168,0,0.339-0.027,0.51-0.084
		c0.168-0.057,0.325-0.098,0.466-0.129c0.14-0.027,0.298-0.041,0.468-0.041h0.424c-0.794,0.113-1.586,0.27-2.378,0.468
		c-0.794,0.196-1.614,0.411-2.463,0.637C14.383,6.06,15.375,5.776,15.545,5.776"/>
	<path clip-path="url(#SVGID_2_)" fill="#512178" d="M15.545,9.344c-0.058,0.058-0.199,0.085-0.426,0.085
		C14.951,9.542,14.724,9.6,14.44,9.6c0.055-0.058,0.085-0.142,0.085-0.256c0-0.056,0.055-0.069,0.168-0.042
		c0.113,0.029,0.199-0.014,0.256-0.127c0.055,0,0.085,0.057,0.085,0.169c0.055,0,0.127-0.013,0.212-0.042
		C15.333,9.274,15.43,9.288,15.545,9.344"/>
	<path clip-path="url(#SVGID_2_)" fill="#512178" d="M12.444,10.065c-0.083-0.027-0.1-0.098-0.042-0.212
		c0.113,0.058,0.283,0.085,0.51,0.085l0.339-0.254c0.112-0.057,0.225-0.029,0.341,0.084c0.055-0.055,0.083-0.141,0.083-0.254
		c0.112-0.057,0.256-0.086,0.426-0.086L14.355,9.6c-0.227,0-0.397,0.085-0.51,0.254c-0.113,0-0.17-0.027-0.17-0.085
		c-0.169,0.115-0.326,0.199-0.466,0.256c-0.143,0.055-0.27,0.141-0.383,0.254c-0.113,0.058-0.254,0.03-0.424-0.084
		c0,0.114-0.042,0.169-0.127,0.169s-0.158,0.058-0.212,0.171c-0.171,0.056-0.284,0.085-0.341,0.085
		c-0.056,0-0.141,0.028-0.254,0.085c-0.284,0.057-0.51,0.156-0.68,0.296c-0.168,0.144-0.396,0.243-0.678,0.298
		c0.225-0.282,0.51-0.48,0.849-0.594c0.171-0.17,0.325-0.256,0.466-0.256c0.142,0,0.269-0.055,0.383-0.17l0.425-0.254
		c0.056,0.113,0.113,0.141,0.17,0.085C12.515,10.109,12.529,10.097,12.444,10.065"/>
	<path clip-path="url(#SVGID_2_)" fill="#512178" d="M10.109,7.562c0.225-0.058,0.394-0.113,0.51-0.172
		c0.339-0.225,0.622-0.366,0.849-0.424c0.055-0.112,0.14-0.141,0.254-0.085l0.681-0.169l-0.766,0.34
		c-0.624,0.226-1.246,0.482-1.869,0.764C9.768,7.702,9.88,7.617,10.109,7.562"/>
	<path clip-path="url(#SVGID_2_)" fill="#512178" d="M10.109,11.807c0.112-0.112,0.225-0.169,0.339-0.169
		c0.112,0,0.225-0.028,0.339-0.085c0.226-0.112,0.368-0.212,0.424-0.298c0.056-0.084,0.227-0.098,0.51-0.041
		c0-0.115,0.029-0.197,0.085-0.256c0.226,0,0.396-0.07,0.51-0.212c0.112-0.141,0.31-0.156,0.595-0.042
		c0.17-0.114,0.325-0.17,0.466-0.17c0.142,0,0.327-0.057,0.553-0.171c0.225-0.112,0.367-0.154,0.424-0.127
		c0.056,0.028,0.112,0.015,0.171-0.042c0.112-0.057,0.198-0.114,0.253-0.17c0.057-0.057,0.143-0.027,0.256,0.085
		c0.112-0.112,0.198-0.171,0.254-0.171c0.226-0.055,0.437-0.112,0.637-0.17c0.198-0.055,0.41-0.084,0.638-0.084
		c0.735-0.113,1.444-0.241,2.123-0.383c0.68-0.139,1.36-0.239,2.039-0.297c0.283-0.057,0.537-0.099,0.766-0.127
		c0.226-0.029,0.452-0.013,0.678,0.041c-0.114,0.114-0.227,0.171-0.339,0.171h-0.339c-0.341,0.056-0.722,0.114-1.148,0.169
		c-0.425,0.058-0.864,0.085-1.315,0.085c-1.303,0.228-2.548,0.496-3.738,0.808c-1.188,0.312-2.351,0.694-3.483,1.146
		c-0.339,0.17-0.708,0.284-1.105,0.34c-0.168,0.169-0.565,0.312-1.188,0.426C9.683,11.892,9.88,11.807,10.109,11.807"/>
	<path clip-path="url(#SVGID_2_)" fill="#512178" d="M7.219,16.733c-0.113-0.112-0.241-0.14-0.381-0.083
		c-0.143,0.056-0.27,0.083-0.382,0.083c0.112-0.281,0.283-0.393,0.509-0.339c0.226,0.058,0.425,0,0.595-0.171
		c-0.058,0-0.031-0.055,0.085-0.168c1.697-0.906,3.524-1.713,5.478-2.422c1.954-0.707,4.034-1.316,6.244-1.827
		c0.112,0,0.17,0.031,0.17,0.085c0.452-0.111,0.947-0.225,1.486-0.339c0.537-0.112,1.09-0.112,1.656,0l3.058-0.424
		c0.339,0,0.68-0.029,1.02-0.085c0.338-0.057,0.68-0.086,1.019-0.086c0.171,0.059,0.225,0.142,0.171,0.256
		c-1.361,0.113-2.634,0.213-3.824,0.295c-1.188,0.086-2.378,0.213-3.568,0.383c-0.169,0-0.283,0.029-0.339,0.086
		c-0.115-0.057-0.17-0.057-0.17,0c0,0.059-0.058,0.086-0.17,0.086c-0.624,0.283-1.29,0.48-1.997,0.595
		c-0.708,0.114-1.431,0.254-2.166,0.425c0,0.056-0.028,0.141-0.085,0.254c-0.339,0-0.651,0.043-0.934,0.127
		c-0.283,0.085-0.565,0.185-0.849,0.297h-0.424c-0.114,0-0.17,0.059-0.17,0.171c-0.227,0.113-0.466,0.198-0.722,0.255
		c-0.254,0.057-0.497,0.143-0.722,0.254c-0.285,0.285-0.552,0.383-0.807,0.299c-0.254-0.086-0.354,0.014-0.297,0.297h-0.339
		c-0.17,0.285-0.482,0.424-0.934,0.424c-0.227,0.115-0.37,0.199-0.424,0.254c-0.456,0.117-0.794,0.271-1.02,0.469
		C7.758,16.382,7.502,16.565,7.219,16.733"/>
	<path clip-path="url(#SVGID_2_)" fill="#512178" d="M9.556,16.606c-0.254,0.199-0.524,0.355-0.808,0.469
		c0.113-0.113,0.256-0.242,0.425-0.383c0.17-0.141,0.341-0.24,0.51-0.297c0.341-0.227,0.539-0.312,0.595-0.255l0.68-0.51
		c0.171-0.171,0.113-0.171-0.17,0c-0.056,0.114-0.168,0.2-0.339,0.254c-0.171,0.058-0.339,0.028-0.51-0.085
		c0.17-0.113,0.339-0.184,0.51-0.213c0.17-0.026,0.311-0.098,0.424-0.211c0.339-0.172,0.649-0.254,0.934-0.254
		c0.112-0.172,0.283-0.298,0.51-0.383c0.225-0.086,0.481-0.156,0.765-0.213c0.113-0.112,0.225-0.143,0.339-0.085
		c-0.227,0.113-0.455,0.212-0.68,0.298c-0.227,0.085-0.454,0.211-0.679,0.383c-0.171,0.113-0.284,0.168-0.341,0.168
		c0.112,0.059,0.198,0.059,0.256,0c0.055-0.055,0.14-0.055,0.254,0c0.283-0.226,0.581-0.381,0.892-0.466s0.609-0.212,0.893-0.383
		l1.273-0.255l1.444-0.426c0.17-0.055,0.424-0.083,0.766-0.083l0.339-0.171c0.171-0.057,0.353-0.07,0.552-0.043
		c0.198,0.03,0.41-0.014,0.638-0.127l1.359-0.169c-0.568,0.114-1.048,0.227-1.444,0.339c-0.907,0.114-1.814,0.312-2.719,0.596
		c-0.453,0.113-0.891,0.211-1.317,0.297c-0.424,0.084-0.863,0.213-1.315,0.381c-0.229,0.059-0.426,0.144-0.595,0.256
		c-0.171,0.113-0.397,0.199-0.68,0.254c-0.114,0.059-0.142,0.143-0.085,0.256c-0.114,0-0.186,0.015-0.213,0.041
		c-0.029,0.029-0.1,0.044-0.212,0.044c-0.171,0-0.285,0.029-0.339,0.083c-0.339-0.111-0.568,0-0.68,0.342l-0.254,0.085
		C10.136,16.255,9.812,16.409,9.556,16.606"/>
	<path clip-path="url(#SVGID_2_)" fill="#512178" d="M11.128,19.197c0.225-0.112,0.438-0.239,0.637-0.381
		c0.198-0.143,0.438-0.242,0.722-0.298c0.112-0.057,0.495-0.226,1.146-0.51c0.65-0.283,1.033-0.396,1.146-0.341
		c0,0.171-0.312,0.341-0.934,0.51c-0.624,0.171-0.992,0.284-1.104,0.341c-0.339,0.227-0.666,0.396-0.976,0.51
		c-0.312,0.113-0.637,0.227-0.978,0.34C10.787,19.255,10.9,19.197,11.128,19.197"/>
	<path clip-path="url(#SVGID_2_)" fill="#512178" d="M14.568,32.704c-0.199-0.113-0.354-0.226-0.466-0.34
		c0.169,0,0.353,0.042,0.551,0.127c0.198,0.086,0.353,0.186,0.466,0.298C14.951,32.845,14.766,32.817,14.568,32.704"/>
	<path clip-path="url(#SVGID_2_)" fill="#512178" d="M17.455,33.894c-0.254-0.112-0.438-0.227-0.551-0.342
		c0.283-0.054,0.51-0.012,0.678,0.13c0.171,0.142,0.396,0.269,0.681,0.38C17.978,34.062,17.711,34.008,17.455,33.894"/>
	<path clip-path="url(#SVGID_2_)" fill="#512178" d="M24.548,37.206c-0.566-0.339-1.217-0.68-1.954-1.02l-2.038-1.02
		c-0.625-0.283-1.247-0.51-1.869-0.68c0.963,0.115,1.983,0.369,3.059,0.766l2.802,1.783c0.114,0.17,0.297,0.297,0.553,0.383
		c0.254,0.084,0.466,0.185,0.637,0.297c0.225,0.114,0.396,0.285,0.51,0.51L24.548,37.206z"/>
	<path clip-path="url(#SVGID_2_)" fill="#512178" d="M10.109,53.771h0.593c0.228,0,0.396,0.029,0.51,0.084l2.974,0.086
		c0.622-0.057,0.792,0.027,0.509,0.254c-1.302,0-2.619-0.07-3.949-0.211c-1.332-0.143-2.59-0.41-3.78-0.809L10.109,53.771z"/>
	<path clip-path="url(#SVGID_2_)" fill="#512178" d="M5.734,54.621c0.198,0.168,0.353,0.283,0.466,0.34
		c0.283,0,0.427,0.027,0.427,0.084c0.622,0.227,1.188,0.369,1.698,0.424c0.566,0.172,1.175,0.312,1.827,0.426
		c0.649,0.113,1.259,0.17,1.826,0.17c0.284,0.057,0.538,0.1,0.764,0.127c0.226,0.029,0.454,0.043,0.68,0.043l4.078,0.084
		c-0.058,0.115-0.256,0.199-0.595,0.256s-0.736,0.086-1.19,0.086c0-0.057-0.085-0.086-0.253-0.086
		c-0.341,0.057-0.653,0.086-0.934,0.086c-0.171,0-0.356-0.029-0.554-0.086c-0.2-0.057-0.412-0.057-0.636,0
		c-0.227-0.057-0.624-0.086-1.19-0.086c-0.396-0.17-0.764-0.238-1.103-0.211c-0.341,0.027-0.653-0.014-0.934-0.127l-0.256-0.086
		c-0.114,0-0.212-0.014-0.297-0.043c-0.085-0.027-0.185-0.043-0.297-0.043l-2.973-0.68c-0.227-0.225-0.539-0.395-0.934-0.51
		c0.112-0.168,0.057-0.311-0.168-0.424C5.351,54.365,5.535,54.449,5.734,54.621"/>
	<path clip-path="url(#SVGID_2_)" fill="#512178" d="M6.795,56.957c0.283,0.084,0.566,0.154,0.851,0.213h0.51
		c1.471,0.396,3,0.678,4.586,0.848c1.642,0.115,3.198,0.17,4.672,0.17c-0.114,0.115-0.312,0.17-0.595,0.17
		c-0.339,0-0.695-0.014-1.062-0.041c-0.369-0.027-0.78-0.014-1.231,0.041c-0.455-0.055-0.907-0.098-1.36-0.127
		c-0.453-0.027-0.934-0.098-1.444-0.213c-0.51-0.057-1.048-0.098-1.612-0.127c-0.568-0.029-1.078-0.129-1.529-0.297
		c-0.341-0.113-0.752-0.227-1.231-0.34c-0.482-0.113-0.95-0.256-1.402-0.426C6.229,56.828,6.51,56.873,6.795,56.957"/>
	<path clip-path="url(#SVGID_2_)" fill="#512178" d="M5.351,55.64c0.225-0.057,0.481-0.045,0.766,0.041
		c0.281,0.086,0.564,0.186,0.849,0.297c0.339,0.115,0.681,0.172,1.02,0.172c0.564,0.168,1.132,0.311,1.698,0.424
		c0.566,0.113,1.19,0.227,1.87,0.34l1.188,0.17c0.396,0.057,0.792,0.086,1.19,0.086c0.339,0,0.622,0.027,0.849,0.084
		c0.112,0,0.212-0.029,0.297-0.084c0.085-0.059,0.156-0.029,0.212,0.084c0.113-0.057,0.212-0.057,0.297,0
		c0.085,0.057,0.156,0.057,0.212,0c0.112,0.057,0.226,0.07,0.339,0.041c0.112-0.025,0.227-0.012,0.341,0.043
		c0.168,0.17,0.098,0.211-0.212,0.129c-0.312-0.086-0.609-0.07-0.892,0.041c-0.17-0.057-0.37-0.084-0.595-0.084h-0.509
		c-0.339,0.057-0.665,0.057-0.976,0c-0.312-0.057-0.609-0.141-0.893-0.254c-0.17,0-0.327,0.014-0.468,0.041
		c-0.142,0.029-0.354,0.014-0.637-0.041c-0.963-0.113-1.897-0.27-2.802-0.469c-0.907-0.197-1.756-0.438-2.549-0.723
		C5.776,55.978,5.576,55.867,5.351,55.64"/>
	<path clip-path="url(#SVGID_2_)" fill="#512178" d="M5.437,58.613c0.339,0.113,0.68,0.283,1.02,0.51
		c0.225,0.113,0.537,0.168,0.934,0.168l1.019,0.342c0.339,0.113,0.65,0.199,0.934,0.254l1.02,0.17c0.225,0,0.396,0.057,0.51,0.17
		c0.057-0.057,0.127-0.084,0.212-0.084c0.085,0,0.099,0.055,0.043,0.168c-0.397,0-0.766-0.041-1.105-0.127
		c-0.341-0.086-0.653-0.127-0.934-0.127c0.113,0.057,0.212,0.1,0.298,0.127c0.083,0.029,0.212,0.043,0.381,0.043
		c0.341,0.227,0.734,0.369,1.189,0.426c0.452,0.057,0.906,0.082,1.359,0.082c-0.171,0.117-0.327,0.158-0.467,0.131
		c-0.144-0.029-0.297-0.045-0.468-0.045l-1.7-0.34c-0.566-0.111-1.076-0.254-1.527-0.424C7.475,60,6.88,59.832,6.371,59.546
		c0.17,0.057,0.283,0.072,0.339,0.043c0.056-0.029,0.141-0.043,0.256-0.043c-0.227-0.113-0.397-0.17-0.51-0.17
		c-0.059-0.113-0.171-0.17-0.339-0.17c-0.229-0.113-0.568-0.34-1.019-0.68C5.21,58.527,5.323,58.556,5.437,58.613"/>
	<path clip-path="url(#SVGID_2_)" fill="#512178" d="M15.29,64.984c-0.794-0.172-1.585-0.199-2.377-0.086
		c-0.568,0.057-1.035,0.113-1.403,0.17s-0.778,0.029-1.232-0.084c-0.113,0-0.227-0.014-0.339-0.045
		c-0.114-0.027-0.256-0.068-0.424-0.127c-0.114,0-0.243-0.012-0.383-0.041c-0.142-0.027-0.271-0.07-0.383-0.127
		c-0.168-0.115-0.354-0.143-0.551-0.086c-0.2,0.057-0.383,0.086-0.551,0.086c-0.341-0.17-0.626-0.256-0.851-0.256l-0.254-0.086
		c-0.284,0-0.455-0.055-0.509-0.168c0.054-0.057,0.085-0.113,0.085-0.17c-0.285,0.057-0.553,0.027-0.807-0.086
		c-0.256-0.113-0.524-0.225-0.807-0.34c0.17-0.111,0.269-0.127,0.297-0.043c0.027,0.086,0.098,0.1,0.212,0.043
		c0.112,0.115,0.297,0.17,0.551,0.17c0.256,0,0.439-0.027,0.553-0.084c0.168,0.168,0.41,0.283,0.722,0.34
		c0.311,0.057,0.523,0.084,0.637,0.084c0.283,0.17,0.564,0.254,0.849,0.254c0.283,0,0.566-0.027,0.849-0.084
		c0.227,0.115,0.396,0.17,0.51,0.17c0.056,0.113,0.17,0.199,0.341,0.256c0.168,0.057,0.366,0.057,0.595,0
		c0.112,0,0.182-0.016,0.212-0.043c0.027-0.027,0.098-0.043,0.212-0.043c0,0.057,0.085,0.115,0.253,0.168
		c0.112,0,0.242-0.012,0.383-0.041c0.14-0.027,0.269-0.012,0.383,0.041c0.51-0.053,1.003-0.082,1.486-0.082
		c0.481,0,0.947,0.057,1.402,0.168c0.112-0.055,0.254-0.068,0.424-0.041c0.17,0.029,0.31,0.014,0.424-0.045
		c0.113,0,0.17,0.031,0.17,0.086l0.764,0.086c0.057,0,0.17,0.027,0.341,0.086C16.395,65.039,15.799,65.039,15.29,64.984"/>
	<path clip-path="url(#SVGID_2_)" fill="#512178" d="M17.329,59.8H15.97c-0.455,0-0.907,0.031-1.36,0.086
		c0,0.057,0.085,0.084,0.256,0.084c-0.114,0.115-0.339,0.115-0.68,0c0-0.111-0.114-0.17-0.339-0.17h-0.51l0.339,0.17
		c-0.168,0-0.312-0.012-0.424-0.041c-0.114-0.029-0.285-0.043-0.51-0.043c0.056-0.055,0.112-0.086,0.171-0.086
		c-0.059-0.055-0.171-0.082-0.339-0.082c-0.171,0-0.229,0.055-0.171,0.168l-0.849-0.34l-0.766-0.17
		c-0.565-0.055-1.006-0.141-1.316-0.254c-0.312-0.113-0.722-0.029-1.232,0.254c0-0.055-0.029-0.113-0.083-0.17
		c-0.285,0-0.427-0.027-0.427-0.084c-0.056-0.113-0.114-0.113-0.168,0c-0.397-0.283-0.822-0.469-1.275-0.555
		c-0.453-0.084-0.792-0.297-1.019-0.637c0.566,0.227,1.076,0.34,1.529,0.34c0.056,0.059,0.056,0.115,0,0.172
		c0.283,0,0.539,0.057,0.766,0.17c0.225,0.113,0.479,0.113,0.764,0c0.056,0.113,0.112,0.156,0.17,0.127
		c0.055-0.027,0.14,0.014,0.254,0.127c0.112-0.113,0.241-0.154,0.383-0.127c0.14,0.029,0.239,0.072,0.297,0.127
		c0.17,0.17,0.368,0.199,0.595,0.086c1.02,0.283,2.008,0.467,2.973,0.551c0.961,0.086,1.924,0.156,2.888,0.215h1.698
		C17.468,59.773,17.385,59.8,17.329,59.8"/>
	<path clip-path="url(#SVGID_2_)" fill="#512178" d="M23.316,63.921c-0.368,0.084-0.778,0.184-1.231,0.297l-2.547,0.68
		c-0.171-0.113-0.37-0.154-0.595-0.127c-0.227,0.029-0.397,0.07-0.51,0.127h-0.424l1.273-0.34l1.274-0.084
		c0.624-0.113,1.247-0.27,1.87-0.469c0.623-0.197,1.246-0.352,1.868-0.467C24.009,63.708,23.685,63.835,23.316,63.921"/>
	<path clip-path="url(#SVGID_2_)" fill="#512178" d="M42.301,45.362c0.112,0.395,0.112,0.678,0,0.848
		c0.169-0.057,0.226-0.382,0.169-0.977c-0.057-0.596-0.114-1.119-0.169-1.572c-0.115,0.398-0.115,0.681,0,0.85
		C42.186,44.682,42.186,44.966,42.301,45.362"/>
	<path clip-path="url(#SVGID_2_)" fill="#512178" d="M42.429,41.665c0.027-0.311,0.041-0.637,0.041-0.977
		c0-0.339-0.014-0.637-0.041-0.893c-0.031-0.254-0.073-0.381-0.127-0.381c-0.058,0.454-0.072,0.922-0.043,1.4
		c0.027,0.482,0.043,0.948,0.043,1.402C42.356,42.161,42.398,41.979,42.429,41.665"/>
	<path clip-path="url(#SVGID_2_)" fill="#512178" d="M46.124,4.077c-0.114,0.057-0.212,0.229-0.298,0.511
		c-0.085,0.284-0.158,0.609-0.212,0.976c-0.058,0.369-0.085,0.723-0.085,1.062v0.68c0,0.113-0.029,0.396-0.085,0.85
		c-0.057,0.454-0.142,0.679-0.254,0.679c-0.114-0.112-0.144-0.396-0.086-0.849c0.055-0.451,0.086-0.735,0.086-0.85
		c0-0.225,0.027-0.58,0.084-1.062c0.055-0.479,0.028-0.777-0.084-0.891c0,0.113-0.014,0.424-0.044,0.935
		c-0.028,0.509-0.07,1.061-0.127,1.655c-0.058,0.596-0.114,1.146-0.17,1.656l-0.083,0.681c-0.058,0-0.085-0.057-0.085-0.171
		c-0.114,0.114-0.158,0.241-0.129,0.383c0.029,0.142-0.015,0.269-0.127,0.383v-0.426c-0.227,0.058-0.353,0.369-0.381,0.936
		c-0.03,0.566-0.072,0.934-0.129,1.104v-1.869c-0.227,0.227-0.297,0.596-0.213,1.104c0.086,0.511,0.072,0.907-0.041,1.188
		c0,0.116-0.058,0.427-0.17,0.937c-0.114,0.509-0.142,0.821-0.085,0.935c-0.114,0.056-0.184,0.211-0.212,0.465
		c-0.029,0.256-0.042,0.554-0.042,0.893v4.757c0,0.681-0.014,1.331-0.043,1.954c-0.028,0.623-0.07,1.049-0.127,1.274
		c-0.056-0.112-0.185-0.142-0.383-0.085c-0.2,0.057-0.326-0.027-0.381-0.256c-0.113,0.115-0.185,0.243-0.212,0.383
		c-0.03,0.143,0.013,0.243,0.126,0.297c-0.226,0.114-0.339,0.256-0.339,0.425c-0.116,0.114-0.298,0.341-0.553,0.681
		c-0.254,0.339-0.383,0.565-0.383,0.678c-0.114,0.059-0.212,0.37-0.296,0.936c-0.085,0.566-0.043,0.85,0.127,0.85
		c0,0.114,0.113,0.412,0.339,0.893c0.225,0.48,0.454,0.976,0.68,1.486l0.764,1.443c0.225,0.455,0.396,0.736,0.51,0.849
		c0,0.171,0.013,0.554,0.043,1.148c0.027,0.593-0.016,0.976-0.129,1.146l-0.083-0.085c0,0.059-0.017,0.2-0.044,0.425
		c-0.028,0.227-0.014,0.37,0.044,0.424v0.936c-0.058,0-0.1,0.256-0.129,0.766s-0.015,0.821,0.043,0.934
		c0.113,0.285,0.127,0.566,0.041,0.849c-0.084,0.284-0.126,0.567-0.126,0.851c0,0.113,0.013,0.296,0.042,0.552
		c0.029,0.254,0.043,0.552,0.043,0.892v0.85c0,0.227-0.031,0.339-0.085,0.339v2.464c0,0.624-0.015,1.231-0.044,1.826
		c-0.028,0.596-0.015,0.949,0.044,1.062c0.054,0.455,0.042,0.992-0.044,1.615c-0.083,0.623-0.042,1.16,0.129,1.615
		c0,0.113-0.015,0.352-0.043,0.721s-0.042,0.779-0.042,1.232v1.443c0,0.453,0.027,0.822,0.085,1.105
		c-0.114-0.227-0.185-0.607-0.212-1.146c-0.031-0.539-0.043-1.092-0.043-1.658v-2.973c0-0.17,0.013-0.41,0.043-0.723
		c0.027-0.311,0.042-0.65,0.042-1.02c0-0.367-0.015-0.706-0.042-1.018c-0.031-0.312-0.1-0.523-0.212-0.639v7.223
		c0,0.508,0.013,1.006,0.042,1.484c0.028,0.482,0.071,0.752,0.127,0.807c-0.114,0.285-0.142,0.637-0.085,1.062
		c0.057,0.426,0.085,0.779,0.085,1.062v0.934c0,0.453,0.013,0.934,0.043,1.443c0.027,0.51,0.055,0.963,0.083,1.359
		c0.029,0.396,0.071,0.596,0.129,0.596c0-0.113-0.031-0.68-0.085-1.701v-2.803l0.17,0.512c0.112,0.17,0.14,0.311,0.083,0.424
		c-0.114,0.057-0.168,0.227-0.168,0.51s0.013,0.623,0.041,1.02s0.072,0.766,0.127,1.105c0.057,0.338,0.085,0.564,0.085,0.68
		c0,0.055,0.057,0.182,0.17,0.379c0.112,0.201,0.212,0.371,0.297,0.512c0.085,0.143,0.154,0.242,0.212,0.297
		c0.055,0.059,0.085,0,0.085-0.17c0.112-0.113,0.14,0,0.083,0.34c-0.055,0.34,0,0.482,0.17,0.426c0-0.113,0.057-0.227,0.17-0.34
		c-0.058,0.113,0,0.283,0.169,0.51c0.115-0.057,0.171-0.143,0.171-0.256v-0.254l0.085-0.086c0.055,0.115,0.085,0.285,0.085,0.51
		c0,0.227,0.14,0.34,0.424,0.34l0.596,0.424c0.451,0.285,0.947,0.623,1.485,1.02c0.537,0.396,1.033,0.734,1.487,1.02
		c0.452,0.283,0.734,0.424,0.849,0.424c0.112,0.225,0.283,0.369,0.509,0.426c0.226,0.057,0.396,0.17,0.51,0.34
		c0.054,0.055,0.14,0.1,0.254,0.127c0.112,0.027,0.228,0.1,0.341,0.213c0.113-0.113,0.267-0.143,0.466-0.086
		c0.198,0.057,0.383,0.113,0.553,0.172c0.169,0.055,0.297,0.084,0.381,0.084c0.085,0,0.129-0.113,0.129-0.34
		c0.281,0,0.394-0.043,0.339-0.127c-0.059-0.086,0.027-0.186,0.254-0.299c0.056-0.227,0.128-0.396,0.212-0.51
		c0.085-0.113,0.184-0.254,0.297-0.424c0.112-0.227,0.242-0.439,0.383-0.637c0.141-0.199,0.269-0.439,0.383-0.721
		c0.113-0.285,0.155-0.582,0.127-0.893c-0.028-0.311-0.042-0.637-0.042-0.977c-0.284-0.113-0.37-0.383-0.256-0.807
		c0.112-0.424,0.142-0.693,0.085-0.809c-0.057,0-0.1-0.268-0.127-0.807c-0.029-0.537-0.014-0.834,0.042-0.893v0.086
		c0.057-0.172,0.057-0.34,0-0.51v0.084c-0.114-0.057-0.156-0.17-0.127-0.338c0.027-0.172,0.042-0.283,0.042-0.342
		c-0.056-0.17-0.042-0.338,0.043-0.51c0.086-0.168,0.07-0.311-0.043-0.424l0.085,0.086v-0.34l-0.085,0.084
		c0-0.227,0.029-0.34,0.085-0.34c0-0.113-0.028-0.268-0.085-0.467c-0.056-0.197-0.114-0.354-0.168-0.467
		c0-0.055-0.015-0.68-0.044-1.869c-0.029-1.189-0.042-2.846-0.042-4.971c0-2.122-0.014-4.67-0.043-7.643
		c-0.029-2.974-0.042-6.271-0.042-9.897c0-0.169-0.014-0.41-0.042-0.722c-0.031-0.311-0.059-0.637-0.085-0.977
		c-0.031-0.338-0.015-0.636,0.042-0.893c0.057-0.254,0.17-0.438,0.341-0.551c0.168,0.169,0.253,0.169,0.253,0h-0.085l-0.085-0.085
		h0.424l-0.083,0.085c0.281,0.113,0.551,0.057,0.807-0.17c0.254-0.226,0.522-0.34,0.805-0.34v0.086c0.112,0,0.227-0.029,0.341-0.086
		c1.074-0.453,2.265-0.864,3.567-1.232c1.302-0.367,2.605-0.665,3.909-0.892c0.451-0.112,0.934-0.198,1.443-0.254
		c0.51-0.057,0.989-0.171,1.443-0.341l-0.085-0.086c0.054-0.055,0.112-0.084,0.171-0.084c0.281-0.056,0.537-0.197,0.764-0.424
		c-0.059-0.227-0.143-0.751-0.254-1.572c-0.115-0.82-0.214-1.67-0.298-2.549c-0.085-0.876-0.144-1.698-0.171-2.463
		c-0.028-0.764,0.042-1.202,0.213-1.317c-0.115-0.112-0.227-0.366-0.34-0.764c-0.113-0.396-0.199-0.735-0.256-1.02l-1.103-0.171
		c-0.455-0.111-0.893-0.111-1.316,0c-0.425,0.117-0.865,0.171-1.317,0.171c-0.227,0-0.722,0.058-1.488,0.171
		c-0.763,0.113-1.203,0.254-1.316,0.424c-0.057,0.285-0.454,0.453-1.188,0.51c-0.737,0.057-1.218,0.227-1.444,0.51
		c-0.058,0-0.242,0.029-0.553,0.086c-0.312,0.056-0.651,0.127-1.02,0.211c-0.367,0.086-0.706,0.2-1.017,0.34
		c-0.312,0.142-0.468,0.241-0.468,0.297c0.283,0,0.65-0.056,1.105-0.17l-1.358,0.596c0-0.113,0.027-0.184,0.083-0.213
		c0.057-0.027,0.085-0.098,0.085-0.213c-0.168-0.282-0.227-0.649-0.168-1.104c0.054-0.451,0.112-0.85,0.168-1.188
		c-0.168-0.282-0.156-0.736,0.043-1.36c0.198-0.622,0.267-1.074,0.212-1.359c0.168-0.396,0.225-0.848,0.168-1.357
		c-0.056-0.511-0.028-0.992,0.085-1.445c0.112-0.453,0.17-0.877,0.17-1.274V7.985c0-0.396,0.055-0.85,0.168-1.359
		c0.115-0.509,0.171-1.004,0.171-1.486c0-0.479-0.1-0.891-0.298-1.232"/>
	<path clip-path="url(#SVGID_2_)" fill="#512178" d="M46.548,4.205c0.056,0.312-0.028,0.524-0.256,0.637
		c-0.113-0.112-0.141-0.239-0.083-0.38c0.055-0.143,0.028-0.27-0.085-0.383"/>
	<path clip-path="url(#SVGID_2_)" fill="#512178" d="M122.409,48.904l0.425-2.463c0.055-0.17,0.099-0.409,0.126-0.721
		c0.027-0.311-0.014-0.552-0.126-0.723c-0.114,0.115-0.2,0.115-0.257,0c0-0.112,0.029-0.283,0.086-0.51
		c0.057-0.225,0-0.451-0.168-0.68c-0.115-0.113-0.213-0.367-0.298-0.764s-0.073-0.65,0.04-0.766
		c-0.396-0.395-0.623-0.82-0.678-1.273c-0.115-0.396-0.115-0.649,0-0.764l-0.34-0.426c-0.285-0.395-0.582-0.736-0.893-1.019
		c-0.312-0.282-0.607-0.595-0.892-0.936c-0.058-0.112-0.085-0.198-0.085-0.254s-0.057-0.14-0.17-0.256l-0.424-0.764
		c-0.285-0.339-0.51-0.566-0.68-0.681l-0.51-0.084l-0.766-0.594l-0.934-1.444c-0.113-0.112-0.227-0.212-0.34-0.298
		c-0.113-0.085-0.229-0.241-0.34-0.468c-0.283-0.282-0.48-0.536-0.594-0.763c-0.115-0.226-0.256-0.426-0.427-0.596
		c-1.472-1.303-2.434-2.109-2.887-2.422c-0.454-0.311-0.736-0.466-0.849-0.466c-1.305-0.341-2.777-0.468-4.418-0.384
		c-1.643,0.086-3.299,0.34-4.97,0.766s-3.3,0.977-4.883,1.656c-1.04,0.445-1.972,0.932-2.817,1.449
		c0.126-0.148,0.223-0.287,0.263-0.406c-0.114-0.112-0.212-0.24-0.298-0.383c-0.085-0.139-0.212-0.268-0.383-0.383v-0.083
		c-0.624-0.396-1.061-0.736-1.316-1.019c-0.254-0.283-0.425-0.51-0.51-0.681c-0.084-0.171-0.143-0.298-0.169-0.383
		c-0.028-0.085-0.158-0.128-0.384-0.128v-0.17l-0.253-0.086v-0.082c0-0.113-0.044-0.184-0.129-0.213
		c-0.083-0.029-0.155-0.099-0.212-0.213l0.085-0.17c-0.339-0.34-0.609-0.566-0.808-0.681c-0.199-0.112-0.354-0.184-0.466-0.212
		c-0.113-0.027-0.212-0.055-0.298-0.086c-0.084-0.027-0.184-0.127-0.297-0.297v-0.083l-0.256-0.171l0.086-0.17l-0.086-0.086
		c0-0.168-0.1-0.34-0.297-0.508c-0.197-0.17-0.354-0.312-0.467-0.426h-0.085c-0.171,0-0.284-0.069-0.339-0.213
		c-0.059-0.14-0.171-0.212-0.342-0.212h-0.168c-0.115,0-0.171-0.042-0.171-0.127s-0.056-0.156-0.169-0.212h0.34
		c-0.059-0.057-0.144-0.086-0.256-0.086c-0.057,0-0.113,0.015-0.169,0.043c-0.058,0.029-0.114,0.043-0.171,0.043
		c-0.113,0-0.17-0.057-0.17-0.171v-0.085c-0.115-0.113-0.227-0.169-0.34-0.169c0,0.114-0.057,0.169-0.17,0.169h-0.426
		c-0.113,0.058-0.253,0.1-0.424,0.129c-0.17,0.029-0.312,0.041-0.424,0.041h-0.172c-0.113,0-0.199,0.015-0.253,0.043
		c-0.058,0.029-0.144,0.043-0.256,0.043c-0.114,0-0.2-0.027-0.254-0.086c0,0.059-0.085,0.1-0.256,0.127
		c-0.169,0.031-0.282,0.044-0.339,0.044h-0.171c-0.169,0-0.254,0.056-0.254,0.169l0.171-0.084c0.055,0,0.112,0.029,0.168,0.084
		l-0.085,0.085c-0.227,0.058-0.651,0.085-1.273,0.085c0.057,0,0.085-0.055,0.085-0.17h-0.17c-0.057,0.115-0.24,0.185-0.552,0.212
		c-0.312,0.03-0.582,0.072-0.807,0.129h-0.171l-0.086,0.085l-0.168-0.085c0,0.056-0.085,0.085-0.256,0.085
		c0,0.169-0.168,0.254-0.51,0.254l-0.424,0.34c-0.17,0.17-0.425,0.256-0.764,0.256h-0.171c-1.927,0.794-3.44,1.6-4.544,2.42
		c-1.104,0.821-1.885,1.46-2.336,1.912c-0.059,0.17-0.141,0.284-0.256,0.338c-0.113,0.059-0.197,0.145-0.255,0.256l-0.255,0.34
		c-0.227,0-0.467,0.199-0.723,0.595c-0.254,0.397-0.412,0.651-0.466,0.764c-0.114-0.055-0.2-0.127-0.256-0.212
		c-0.056-0.084-0.142-0.127-0.254-0.127c-0.227,0-0.397,0.058-0.51,0.17v-0.341c-0.227,0.116-0.369,0.229-0.425,0.341h-0.17v-0.085
		l-0.254-0.339c-0.113,0.056-0.17,0.113-0.17,0.168l-0.34-0.168c0,0.056-0.086,0.083-0.256,0.083l0.17-0.254
		c-0.113-0.056-0.156-0.155-0.127-0.298c0.028-0.139-0.016-0.212-0.129-0.212l-0.168-0.085c-0.059,0.058-0.086,0.143-0.086,0.256
		c-0.17,0-0.256-0.029-0.256-0.086s0.029-0.112,0.086-0.17c0.057-0.055,0.086-0.113,0.086-0.169c-0.115,0-0.199,0.042-0.254,0.127
		c-0.059,0.085-0.145,0.127-0.256,0.127c0,0.058,0.056,0.199,0.17,0.425c-0.114,0.227-0.157,0.455-0.127,0.68
		c0.027,0.227-0.016,0.453-0.129,0.679c-0.168,0-0.254-0.055-0.254-0.169v-0.341c-0.113,0.116-0.17,0.284-0.17,0.51
		c-0.057-0.055-0.086-0.14-0.086-0.254l-0.085,0.085l-0.083-0.085v-0.51c-0.058,0.114-0.114,0.199-0.17,0.254
		c-0.058,0.058-0.085,0.144-0.085,0.256c0,0.056,0.027,0.114,0.085,0.171l-0.171,0.168V32.96l-0.168,0.083l-0.085-0.083v-1.02
		l-0.085,0.168c-0.058,0.059-0.085,0.144-0.085,0.256v0.086h0.085c0,0.113-0.029,0.199-0.085,0.254v0.085l-0.085-0.085v-0.51
		c-0.114,0.227-0.169,0.369-0.169,0.424c0.055,0.115,0.085,0.256,0.085,0.425v0.171c-0.116-0.113-0.157-0.27-0.129-0.467
		c0.03-0.197-0.015-0.383-0.127-0.553c0,0.455-0.029,0.794-0.085,1.02h-0.085c0,0.17-0.029,0.297-0.083,0.383
		c-0.058,0.085-0.085,0.155-0.085,0.211c-0.058-0.111-0.085-0.256-0.085-0.424l-0.256-0.766l0.085-0.254l-0.085-0.256
		c0,0.114-0.015,0.229-0.042,0.342c-0.029,0.113-0.042,0.227-0.042,0.339l0.083,0.254c-0.168,0.171-0.254,0.341-0.254,0.509h-0.085
		l-0.085-0.082v-0.171l-0.085-0.085v-0.34l-0.083,0.086v0.424c0,0.114-0.031,0.168-0.085,0.168v2.21
		c-0.058,0.114-0.073,0.2-0.044,0.254c0.029,0.058,0.013,0.115-0.042,0.171c0.054,0.227,0.071,0.469,0.042,0.723
		c-0.029,0.256-0.014,0.467,0.044,0.636v0.085c0,0.059,0.013,0.115,0.041,0.172c0.028,0.056,0.044,0.113,0.044,0.168
		c0.112,1.189,0.212,2.336,0.297,3.441c0.083,1.104,0.14,2.123,0.168,3.059c0.028,0.934,0.056,1.729,0.085,2.377
		c0.027,0.651,0.042,1.092,0.042,1.317h-0.083l0.169,0.34c-0.057,0.113-0.085,0.256-0.085,0.424c0,0.172,0.029,0.285,0.085,0.342
		v0.424c0.112,0.115,0.141,0.24,0.085,0.381c-0.056,0.145-0.028,0.27,0.085,0.383v1.02l0.085,0.17v0.68
		c0,0.057,0.027,0.158,0.085,0.297c0.054,0.145,0.083,0.271,0.083,0.383l-0.083,0.256v0.254c0.054,0,0.083,0.059,0.083,0.172v0.254
		c0,0.283,0.03,0.523,0.085,0.721c0.057,0.199,0.085,0.412,0.085,0.637c-0.058,0.059-0.085,0.115-0.085,0.17
		c0,0.113,0.014,0.199,0.044,0.256c0.027,0.057,0.042,0.143,0.042,0.254v0.17h-0.085l-0.085,0.17c0,0.115,0.057,0.229,0.17,0.342
		v-0.342c0-0.055,0.027-0.113,0.085-0.17c0,0.115,0.013,0.242,0.042,0.383c0.03,0.143,0.043,0.27,0.043,0.383
		c-0.058-0.055-0.113-0.086-0.17-0.086c0,0.17,0.057,0.256,0.17,0.256v-0.086c0.055,0.113,0.055,0.172,0,0.172v0.084l0.085,0.254
		v0.086c0,0.057,0.027,0.113,0.083,0.168v0.852c0,0.396,0.029,0.623,0.085,0.678v-0.084c0.056,0,0.085,0.1,0.085,0.297
		c0,0.199,0.027,0.328,0.085,0.383l-0.085,0.084h0.085l0.085,0.086v0.17c0,0.17,0.027,0.369,0.083,0.596
		c0,0.113,0.03,0.227,0.085,0.34c-0.055,0.055-0.085,0.168-0.085,0.34c0,0.283,0.071,0.551,0.214,0.807
		c0.139,0.254,0.212,0.523,0.212,0.807c0-0.057,0.055-0.084,0.168-0.084c0.113,0,0.171-0.029,0.171-0.086h0.085
		c0.055-0.057,0.086-0.113,0.086-0.172l-0.086-0.082v-0.172l0.086-0.084l0.082,0.084c0.057,0,0.115-0.027,0.172-0.084v0.084
		l-0.086,0.172v0.168l0.17,0.086l0.254-0.172v0.172c0,0.057,0.029,0.141,0.086,0.254c0.112,0.229,0.17,0.426,0.17,0.594v0.172
		c0.113,0,0.171,0.027,0.171,0.084l-0.085,0.086v0.168c0,0.115,0.013,0.172,0.041,0.172c0.027,0,0.071,0.055,0.127,0.17
		c0.113,0,0.171-0.057,0.171-0.17v-0.51c-0.058,0-0.113-0.057-0.171-0.172h0.171c0.058,0,0.112,0.031,0.171,0.086h-0.086v0.17
		l0.086,0.086h0.168c0,0.113,0.029,0.199,0.086,0.254c0.057-0.055,0.17-0.086,0.339-0.086l0.255,0.342
		c0,0.168,0.142,0.254,0.426,0.254c0.225,0.34,0.41,0.607,0.552,0.807s0.368,0.396,0.68,0.596c0.31,0.197,0.75,0.41,1.316,0.637
		c0.565,0.225,1.416,0.48,2.55,0.764c0.111,0,0.168-0.084,0.168-0.254c0-0.115-0.029-0.199-0.084-0.256l0.084-0.084
		c0.057,0,0.142-0.031,0.256-0.086h0.086l0.168,0.254h0.086c0.282-0.283,0.48-0.424,0.594-0.424l-0.085,0.256h0.171
		c0-0.17,0.112-0.256,0.34-0.256h0.34v-0.086c0-0.113,0.084-0.168,0.254-0.168l-0.085-0.084h0.085
		c0.058-0.059,0.086-0.115,0.086-0.172v-0.084l0.085,0.17c0.169-0.113,0.254-0.34,0.254-0.682c0-0.113-0.028-0.199-0.085-0.252
		h0.085c-0.056-0.059-0.085-0.115-0.085-0.172c0.057-0.055,0.085-0.113,0.085-0.168l-0.085-0.17l0.085-0.258
		c0-0.111-0.056-0.279-0.169-0.508l0.084-0.51c-0.057-0.055-0.084-0.141-0.084-0.254c0-0.227,0.027-0.396,0.084-0.51l-0.084-0.086
		h0.084v-0.168c0-0.115,0.029-0.199,0.085-0.256c-0.114-0.057-0.169-0.113-0.169-0.172v-0.082c-0.058-0.115-0.085-0.258-0.085-0.426
		v-0.594l0.085-0.086c-0.058-0.057-0.085-0.141-0.085-0.254c0-0.17,0.027-0.283,0.085-0.342c0-0.111-0.016-0.184-0.043-0.211
		c-0.029-0.027-0.042-0.1-0.042-0.213s0.027-0.197,0.085-0.256c-0.058,0-0.115-0.084-0.17-0.254c-0.059-0.17-0.086-0.283-0.086-0.34
		c0-0.17,0.058-0.311,0.171-0.426c-0.058-0.055-0.085-0.113-0.085-0.168v-0.086c0-0.113,0.013-0.197,0.041-0.256
		c0.029-0.055,0.044-0.113,0.044-0.168c0-0.172-0.015-0.326-0.044-0.469c-0.028-0.139-0.041-0.268-0.041-0.381v-0.68
		c0-3.623,0.212-6.582,0.637-8.877c0.424-2.293,0.961-4.146,1.613-5.564c0.65-1.414,1.318-2.504,1.996-3.27
		c0.681-0.764,1.275-1.402,1.785-1.91l0.339-0.17c0.226,0,0.468-0.1,0.722-0.298c0.256-0.198,0.496-0.396,0.723-0.596
		c0.225-0.198,0.41-0.366,0.551-0.51c0.142-0.14,0.184-0.154,0.129-0.042c0.169,0,0.281-0.029,0.34-0.084l1.104-0.511
		c0.054-0.056,0.184-0.098,0.382-0.126c0.197-0.029,0.354-0.045,0.467-0.045h0.086v-0.085l0.17,0.085
		c0.281-0.111,0.564-0.197,0.85-0.254c0.283-0.057,0.621-0.084,1.02-0.084v-0.086c0.113,0,0.197-0.013,0.254-0.042
		c0.057-0.028,0.141-0.044,0.255-0.044h0.169l1.02-0.168l0.256-0.086c0.112,0,0.197,0.029,0.254,0.086s0.143,0.114,0.256,0.168
		c0.055-0.054,0.139-0.082,0.254-0.082c0.112,0,0.184,0.041,0.212,0.126c0.029,0.085,0.156,0.128,0.382,0.128
		c0.113,0,0.184-0.014,0.213-0.043c0.008-0.006,0.025-0.016,0.054-0.021c-1.339,1.187-2.446,2.39-3.317,3.608
		c-1.135,1.585-2.152,3.512-3.059,5.775c0.227,0.056,0.624,0.227,1.189,0.509c0.566,0.285,0.879,0.483,0.935,0.596
		c0.057,0.056,0.026,0.142-0.085,0.254c0.111,0.114,0.197,0.171,0.256,0.171c0.113,0.113,0.17,0.212,0.17,0.297
		c0,0.086,0.055,0.186,0.168,0.298c0.283,0.339,0.369,0.593,0.256,0.763c-0.113,0.172-0.256,0.398-0.424,0.681
		c0,0.057-0.043,0.142-0.129,0.253c-0.086,0.115-0.155,0.2-0.212,0.258c-0.397,0.397-0.651,0.762-0.764,1.102l-0.255,0.68
		l0.084,0.596l-0.084,0.254c-0.057,0-0.143,0.016-0.255,0.043c-0.114,0.029-0.198,0.041-0.256,0.041
		c-0.114-0.564-0.015-1.131,0.298-1.697c0.311-0.566,0.438-0.905,0.383-1.018c-0.681,0.792-1.105,2.008-1.275,3.651
		c-0.115,0.68-0.184,1.416-0.213,2.209c-0.029,0.795,0.016,1.418,0.129,1.869c0.112,0.227,0.311,0.666,0.594,1.316
		s0.51,1.119,0.68,1.402c0.171,0.113,0.324,0.227,0.469,0.34c0.139,0.113,0.238,0.254,0.297,0.424l0.424,0.34
		c0.396,0.51,0.863,1.092,1.4,1.74c0.539,0.654,0.865,0.951,0.979,0.893l0.934,1.105c0.453,0.623,0.906,1.146,1.359,1.57
		s0.819,0.836,1.104,1.232c0.057,0,0.057-0.055,0-0.172l0.511,0.51c0.112,0.172,0.31,0.199,0.595,0.086l0.426,0.594
		c0.111,0.115,0.297,0.029,0.551-0.252c0.256-0.283,0.522-0.283,0.807,0c0.17,0.055,0.311,0.141,0.424,0.252
		c0.113,0.115,0.229,0.199,0.342,0.258l1.358,0.676c3.058,0.795,5.833,0.781,8.324-0.039c2.49-0.82,4.927-2.139,7.304-3.951
		c2.721-2.152,4.813-4.375,6.289-6.668C120.993,54.724,121.954,52.017,122.409,48.904 M110.517,36.417
		c0.396,0.059,0.679,0.115,0.85,0.171c0,0.058-0.056,0.085-0.171,0.085c-2.435-0.283-4.644-0.127-6.624,0.467
		c-1.984,0.595-3.541,1.148-4.673,1.657c-0.284,0.114-0.581,0.255-0.892,0.425c-0.311,0.168-0.607,0.339-0.892,0.51l-1.358,1.103
		c-0.115-0.054-0.03-0.226,0.254-0.51c0.793-0.563,1.371-0.935,1.741-1.103c0.368-0.17,0.778-0.396,1.231-0.68l0.51-0.34
		c0.225-0.225,0.596-0.396,1.105-0.51l1.357-0.424c0.453-0.171,0.85-0.298,1.19-0.383c0.339-0.086,0.51-0.156,0.51-0.213
		c0.112,0.114,0.366,0.086,0.764-0.085c0.283-0.171,1.104-0.284,2.462-0.339L110.517,36.417z M94.038,39.39
		c-0.171,0.285-0.383,0.596-0.637,0.935c-0.256,0.341-0.355,0.51-0.298,0.51c-0.511,0.456-0.88,0.88-1.104,1.275
		c-0.227,0.397-0.539,0.821-0.935,1.272c0-0.054,0.085-0.238,0.257-0.551c0.168-0.311,0.408-0.68,0.721-1.104
		c0.311-0.425,0.637-0.849,0.977-1.273C93.357,40.028,93.698,39.675,94.038,39.39 M88.006,40.453
		c0.171-0.31,0.368-0.622,0.595-0.935c0.227-0.31,0.438-0.594,0.637-0.85c0.198-0.254,0.325-0.41,0.383-0.467l0.086-0.256
		c0.113,0,0.197,0.031,0.254,0.086c-0.51,0.51-0.906,1.02-1.188,1.528c-0.284,0.511-0.623,1.02-1.02,1.529
		C87.752,40.978,87.837,40.765,88.006,40.453 M90.13,38.456c-0.059,0.114-0.158,0.297-0.297,0.553
		c-0.141,0.254-0.271,0.439-0.383,0.552c-0.115,0.228-0.227,0.438-0.34,0.637c-0.113,0.2-0.254,0.356-0.424,0.468
		c-0.059-0.057,0.055-0.354,0.339-0.893c0.283-0.536,0.595-0.946,0.935-1.23C90.017,38.485,90.071,38.456,90.13,38.456
		 M86.987,43.808c-0.057-0.281,0.029-0.691,0.256-1.232c0.225-0.537,0.48-1.031,0.763-1.485l-0.254,0.595
		c0.169-0.17,0.311-0.256,0.425-0.256c-0.114,0.171-0.213,0.34-0.297,0.51c-0.086,0.171-0.156,0.312-0.213,0.425L86.987,43.808z
		 M89.025,43.382l0.935-2.292c-0.227,0.227-0.425,0.466-0.594,0.722c-0.17,0.254-0.283,0.497-0.341,0.723l0.425-0.596
		c-0.115,0.227-0.254,0.568-0.425,1.02c-0.113,0.455-0.227,0.624-0.339,0.51c-0.339,0.453-0.567,0.836-0.681,1.146
		c-0.113,0.312-0.282,0.723-0.509,1.232c-0.114-0.113-0.057-0.479,0.17-1.105c0.226-0.623,0.481-1.132,0.764-1.527l0.341-0.426
		l0.425-1.02c0-0.055,0.027-0.113,0.086-0.169l0.592-0.766c0.115-0.339,0.227-0.593,0.342-0.763l0.424-0.596
		c0.056,0.114,0.056,0.199,0,0.256c-0.057,0.057-0.085,0.142-0.085,0.254c0.112,0,0.198-0.027,0.255-0.086l0.426-0.424
		c-0.114-0.112-0.114-0.225,0-0.339c0.055-0.058,0.139-0.085,0.254-0.085c0.17-0.113,0.311-0.255,0.424-0.426
		c0.113-0.17,0.227-0.31,0.342-0.424l0.254-0.17l-1.615,2.123l-0.51,0.51c-0.339,0.679-0.593,1.219-0.764,1.613
		C89.45,42.675,89.251,43.044,89.025,43.382 M90.64,43.341c-0.227,0.312-0.396,0.609-0.51,0.893l-0.256,0.083l0.51-0.763
		c0.227-0.34,0.396-0.65,0.51-0.935C90.95,42.788,90.865,43.03,90.64,43.341 M89.662,49.541c-0.028,0.371-0.1,0.754-0.212,1.148
		c-0.283-0.227-0.268-0.777,0.043-1.658c0.311-0.875,0.693-1.741,1.146-2.59l-0.256,0.172l0.086-0.256
		c0.057-0.17,0.156-0.425,0.297-0.764c0.142-0.342,0.325-0.708,0.555-1.105c0.224-0.396,0.437-0.778,0.635-1.146
		c0.199-0.368,0.383-0.666,0.553-0.893l0.34-0.595c0.17-0.112,0.312-0.267,0.426-0.466c0.113-0.197,0.225-0.354,0.339-0.469v0.342
		l-1.021,1.358c0.057,0-0.141,0.284-0.594,0.849c0.68-0.51,1.091-0.834,1.231-0.976c0.142-0.142,0.31-0.327,0.51-0.554
		c0.198-0.225,0.396-0.551,0.595-0.976c0.197-0.427,0.607-0.864,1.231-1.317c0.226-0.17,0.369-0.225,0.425-0.17l0.595-0.424
		c0-0.057,0.085-0.086,0.254-0.086l0.171-0.254c0.17-0.057,0.283-0.099,0.339-0.129c0.057-0.027,0.142-0.041,0.256-0.041
		c0.396-0.51,0.735-0.779,1.019-0.808c0.283-0.027,0.564-0.099,0.85-0.212l0.256-0.254l1.188-0.427h0.51
		c0.171,0,0.311-0.055,0.425-0.169c0.057,0.057,0.227,0.029,0.51-0.085l0.934-0.511c0.341-0.17,0.666-0.297,0.979-0.382
		c0.311-0.085,0.494-0.069,0.551,0.044h0.51c0.283,0,0.48-0.057,0.595-0.172c0.112,0.115,0.353,0.115,0.722,0
		c0.368-0.111,0.608-0.111,0.723,0c1.132-0.111,2.15-0.026,3.059,0.256l-2.211-0.17c-0.623,0.057-1.075,0.086-1.357,0.086
		c-0.736,0.113-1.346,0.168-1.827,0.168c-0.48,0-0.935,0.114-1.358,0.342c-0.424,0.227-0.778,0.411-1.061,0.551
		c-0.285,0.142-0.456,0.213-0.51,0.213l-0.51,0.256c-0.227,0.056-0.371,0.056-0.425,0c-0.058,0.056-0.058,0.113,0,0.168
		c-0.114,0-0.341,0.044-0.681,0.127c-0.34,0.086-0.623,0.158-0.85,0.215l-0.256,0.254c-0.168-0.113-0.325-0.141-0.465-0.086
		c-0.145,0.059-0.299,0.158-0.469,0.298c-0.168,0.143-0.326,0.326-0.466,0.553c-0.144,0.228-0.243,0.282-0.298,0.169
		c0,0.059-0.029,0.113-0.085,0.171l-0.509,0.253l-1.021,0.766c-0.113,0.115-0.212,0.269-0.298,0.467
		c-0.084,0.199-0.212,0.355-0.383,0.468c-0.056,0.056-0.141,0.085-0.254,0.085c0.284-0.453,0.608-0.851,0.977-1.189
		c0.368-0.34,0.779-0.649,1.231-0.934c-0.282,0-0.452,0.085-0.51,0.253c-0.056,0-0.212,0.101-0.466,0.298
		c-0.256,0.199-0.568,0.396-0.934,0.595c-0.37,0.2-0.695,0.524-0.979,0.978c-0.285,0.453-0.51,0.85-0.678,1.188
		c-0.171,0.058-0.342,0.185-0.51,0.382c-0.171,0.2-0.511,0.525-1.02,0.979c-0.285,0.453-0.596,1.006-0.934,1.656
		c-0.342,0.651-0.541,1.203-0.596,1.656c0.055,0,0.127-0.07,0.212-0.213c0.085-0.141,0.154-0.24,0.212-0.297l-0.849,1.616
		C89.903,48.707,89.692,49.175,89.662,49.541 M96.925,57.06c0.113,0.113,0.324,0.156,0.638,0.127
		c0.311-0.027,0.523-0.098,0.638-0.211c0.168,0.055,0.352,0.041,0.552-0.045c0.198-0.084,0.409-0.182,0.636-0.297l0.596-0.254
		c0.17-0.113,0.283-0.086,0.339,0.084c0.114-0.111,0.198-0.156,0.256-0.125c0.056,0.027,0.112,0.014,0.171-0.045
		c0.055,0,0.027,0.059-0.086,0.17c-0.283,0.17-0.609,0.328-0.977,0.467c-0.369,0.143-0.751,0.256-1.146,0.342
		c-0.398,0.084-0.723,0.154-0.978,0.211s-0.439,0.086-0.552,0.086l-0.51,0.34l1.275-0.172c-0.285,0.227-0.568,0.299-0.852,0.213
		c-0.283-0.084-0.538,0.014-0.763,0.297l-0.425-0.254l0.51-0.084c-0.795-0.113-1.275-0.184-1.443-0.213
		c-0.172-0.027-0.285-0.043-0.342-0.043c-0.057,0.057-0.057,0.115,0,0.17l-1.104-0.254c-0.565-0.113-1.161-0.311-1.783-0.594
		c-0.624-0.283-0.935-0.455-0.935-0.512v-0.17v-0.086c0.682,0.285,1.232,0.51,1.656,0.682c0.425,0.17,0.794,0.283,1.105,0.34
		c0.31,0.057,0.537,0.084,0.68,0.084c0.141,0,0.296,0.059,0.467,0.17h1.699c0.51,0,0.734-0.057,0.678-0.17
		C96.812,57.259,96.812,57.173,96.925,57.06 M101.174,54.681c-0.286,0.229-0.61,0.383-0.979,0.467
		c-0.368,0.086-0.722,0.186-1.061,0.299l-1.19,0.254l-0.339-0.17l0.171-0.342c0.281,0.342,0.578,0.412,0.891,0.213
		c0.311-0.195,0.521-0.24,0.637-0.127l0.255-0.254l0.171-0.256c0.112,0,0.297-0.014,0.551-0.041s0.438-0.1,0.553-0.213
		c0.17-0.17,0.311-0.256,0.426-0.256C101.144,54.482,101.116,54.625,101.174,54.681 M94.462,57.994
		c-0.057,0.057-0.141,0.115-0.254,0.168c-0.396,0.059-0.736-0.082-1.019-0.424c0-0.055,0.224-0.027,0.678,0.086
		S94.519,57.994,94.462,57.994 M93.867,55.447c-0.678-0.059-1.528-0.369-2.546-0.936c-0.172-0.111-0.371-0.197-0.596-0.256
		c-0.171-0.168-0.143-0.479,0.084-0.934l0.68,0.766c0.283,0.395,0.594,0.623,0.934,0.678l1.19,0.342
		c0.563,0.113,1.048,0.168,1.444,0.168c0.111,0.113,0.239,0.143,0.383,0.086c0.139-0.057,0.267-0.027,0.38,0.086
		c0-0.059,0.029-0.113,0.085-0.172l0.342,0.426C95.34,55.587,94.548,55.501,93.867,55.447 M91.532,60.414
		c-0.143-0.197-0.271-0.24-0.383-0.127l0.595,0.34l-0.341,0.342l-0.339-0.426c-0.114-0.227-0.171-0.426-0.171-0.596
		c0.114,0.115,0.311,0.213,0.596,0.299c0.283,0.084,0.48,0.182,0.594,0.297C91.857,60.658,91.672,60.613,91.532,60.414
		 M94.208,60.117c-0.51-0.225-1.006-0.395-1.487-0.51c-0.481-0.113-0.751-0.168-0.808-0.168l-1.188-0.596
		c-0.059-0.057-0.086-0.17-0.086-0.34l0.682,0.426c0.338,0.055,0.451,0.084,0.338,0.084c0.396,0.34,0.793,0.51,1.189,0.51
		c0.113,0.057,0.354,0.115,0.723,0.17c0.367,0.057,0.605,0.143,0.723,0.254C94.294,60.003,94.263,60.062,94.208,60.117
		 M92.933,59.097l-0.594-0.254c-0.115,0.113-0.199,0.141-0.256,0.086c-0.113-0.057-0.141-0.113-0.084-0.172l-1.02-0.51l-0.425-0.424
		c-0.228-0.17-0.254-0.283-0.085-0.34l2.123,1.105c0.057,0,0.256,0.113,0.597,0.34c0.396,0.055,0.692,0.113,0.892,0.168
		c0.196,0.057,0.353,0.115,0.467,0.17l0.766-0.084l0.763-0.086C94.831,59.552,93.784,59.552,92.933,59.097 M101.684,57.57
		c-0.114-0.113-0.229-0.113-0.341,0c-0.68,0.113-1.261,0.283-1.742,0.51c-0.48,0.227-1.004,0.395-1.57,0.51
		c-0.566,0.113-1.119,0.197-1.656,0.254c-0.538,0.059-1.061-0.027-1.57-0.254c0.111-0.057,0.352-0.086,0.722-0.086
		c0.366,0,0.608,0.057,0.722,0.17c0.168-0.17,0.41-0.254,0.722-0.254c0.311,0,0.692-0.057,1.146-0.172
		c1.132-0.283,1.698-0.451,1.698-0.51c0.17-0.055,0.495-0.197,0.977-0.424c0.482-0.225,0.779-0.283,0.894-0.17V57.57z
		 M110.815,43.171c-0.654,1.502-1.488,2.888-2.508,4.162c-1.02,1.274-2.123,2.407-3.312,3.399c-1.189,0.99-2.293,1.826-3.312,2.504
		l-0.341,0.256c-0.283-0.057-0.594,0.086-0.936,0.426c-0.338,0.338-0.565,0.424-0.678,0.254h-0.342
		c-0.113,0.115-0.281,0.184-0.509,0.213s-0.397,0.098-0.511,0.213c-0.227,0.057-0.367,0.113-0.424,0.168l-0.848,0.086
		c-0.227,0-0.511,0.059-0.85,0.17l-1.189-0.17c-1.134-0.113-2.012-0.369-2.635-0.764c-0.623-0.396-1.133-0.736-1.529-1.02
		c0.057-1.133,0.171-1.926,0.342-2.379c0.168-0.453,0.283-0.82,0.339-1.104l0.425-0.766c1.02-2.153,2.322-3.979,3.906-5.479
		c1.586-1.5,3.299-2.688,5.14-3.568c1.84-0.877,3.695-1.429,5.564-1.655c1.868-0.226,3.597-0.14,5.181,0.253
		C111.79,40.071,111.464,41.673,110.815,43.171"/>
	<path clip-path="url(#SVGID_2_)" fill="#512178" d="M130.642,0c-0.51,1.529-0.948,3.185-1.316,4.971
		c-0.367,1.783-0.68,3.454-0.934,5.009c-0.254,1.561-0.412,2.594-0.467,3.104c-0.285,1.019-0.483,2.023-0.596,3.014
		c-0.114,0.992-0.17,1.517-0.17,1.571c0,0.116-0.072,0.411-0.213,0.892c-0.142,0.483-0.24,0.723-0.297,0.723
		c-0.114,0-0.171-0.055-0.171-0.169c0-0.056,0.015-0.114,0.044-0.171c0.027-0.056,0.042-0.139,0.042-0.256
		c-0.058-0.054-0.128,0.117-0.212,0.51c-0.086,0.397-0.17,0.852-0.255,1.361s-0.157,1.02-0.212,1.529
		c-0.058,0.51-0.086,0.878-0.086,1.103c-0.057,0.341-0.099,0.681-0.127,1.02c-0.031,0.341-0.043,0.681-0.043,1.02
		c0,0.114,0.012,0.256,0.043,0.425c0.028,0.17,0.042,0.312,0.042,0.424c-0.171,0-0.284,0.129-0.339,0.383
		c-0.058,0.256-0.085,0.439-0.085,0.553c0,0.228,0.013,0.425,0.042,0.594c0.029,0.17,0.043,0.341,0.043,0.51
		c0,0.455-0.072,0.808-0.213,1.062c-0.007,0.013-0.009,0.025-0.017,0.037l-0.004-0.004c-0.142,0.256-0.214,0.525-0.214,0.809v5.785
		c0,1.648,0.057,3.277,0.172,4.895c0.113,1.617,0.172,3.248,0.172,4.895c0,1.533,0.027,3.034,0.086,4.51
		c0.055,1.475,0.225,4.24,0.338,5.83c0.113,1.586,0.396,3.119,0.852,4.592c0.225,0.74,0.511,1.477,0.85,2.215
		c0.342,0.736,0.625,1.473,0.854,2.213l0.339,0.68c0.226,0.566,0.481,1.078,0.767,1.531c0.282,0.455,0.565,0.881,0.852,1.277
		c-0.058-0.113-0.1-0.201-0.128-0.256c-0.03-0.055-0.071-0.141-0.128-0.254c0.17,0.17,0.283,0.34,0.34,0.51
		c0.17,0.113,0.256,0.227,0.256,0.342c0,0.113,0.057,0.225,0.172,0.34c0.168,0.055,0.451,0.072,0.849,0.045
		c0.396-0.033,0.624-0.018,0.683,0.039l-0.088-0.254c0-0.285,0.088-0.428,0.256-0.428c-0.056,0-0.084-0.055-0.084-0.168
		c0-0.059,0.028-0.117,0.084-0.172c0,0.113,0.029,0.172,0.086,0.172c0.396,0.113,0.623,0.141,0.681,0.084
		c-0.114,0-0.171-0.057-0.171-0.17c0.171-0.227,0.226-0.371,0.171-0.424c0-0.229,0.154-0.5,0.468-0.811
		c0.312-0.312,0.555-0.611,0.723-0.893c0-0.115-0.041-0.215-0.127-0.299c-0.084-0.086-0.126-0.156-0.126-0.213
		c0-0.34,0.112-0.639,0.34-0.893c0.226-0.256,0.396-0.582,0.511-0.979V62.06c0.057,0,0.099-0.141,0.129-0.426
		c0.027-0.283,0.041-0.453,0.041-0.512c-0.113,0-0.258-0.596-0.426-1.785c-0.172-1.191,0.029-3.742-0.085-5.189
		c-0.114-1.445-0.17-2.426-0.17-2.936v-0.074h0.001v-0.936c0-0.34-0.056-0.68-0.169-1.02l-0.171-2.633
		c-0.056-1.529-0.084-2.576-0.084-3.145v-1.783c0-0.621,0.012-1.217,0.043-1.782c0.027-0.565,0.099-1.132,0.212-1.7v1.275
		c0,1.303,0.14,2.293,0.425,2.973c0.283,0.679,0.85,1.444,1.697,2.294l2.464,2.464c1.642,1.698,3.029,3.213,4.163,4.543
		c1.131,1.332,2.264,2.732,3.396,4.205c0.623,0.85,1.289,1.686,1.998,2.506c0.707,0.822,6.985,7.83,7.608,8.68
		c0.283,0.342,0.552,0.709,0.808,1.105c0.254,0.396,0.522,0.736,0.808,1.02c0.054-0.055,0.054-0.172,0-0.34
		c0.622,0.566,1.003,1.119,1.146,1.656c0.14,0.537,0.466,0.807,0.976,0.807c0,0.285,0.113,0.537,0.341,0.764
		c0.225,0.227,0.467,0.424,0.722,0.596c0.254,0.17,0.479,0.311,0.678,0.424s0.27,0.172,0.213,0.172c0.283,0,0.48,0.068,0.596,0.211
		c0.111,0.141,0.311,0.213,0.594,0.213s0.581-0.059,0.893-0.172c0.311-0.113,0.494-0.311,0.552-0.594l0.255-2.037
		c0-0.396,0.027-0.793,0.084-1.189s0.086-0.82,0.086-1.273c0-0.342-0.086-0.682-0.254-1.02c-0.171-0.342-0.256-0.709-0.256-1.105
		c0-0.453,0.098-0.904,0.297-1.357c0.198-0.455,0.298-0.709,0.298-0.766c0-0.906-0.158-1.742-0.468-2.506
		c-0.312-0.766-0.723-1.488-1.232-2.166c-0.509-0.68-6.674-7.52-7.268-8.172c-0.595-0.648-1.177-1.371-1.74-2.166l-5.013-6.032
		l-0.595-0.51c-0.285-0.339-0.568-0.692-0.85-1.061c-0.283-0.368-0.553-0.707-0.807-1.02c-0.256-0.311-0.411-0.495-0.469-0.553
		c-0.055-0.281-0.326-0.608-0.807-0.977s-0.863-0.947-1.146-1.741l0.51-0.255c2.549-1.359,5.111-2.662,7.688-3.908
		c2.575-1.244,5.139-2.549,7.688-3.906c1.755-0.906,2.633-1.699,2.633-2.379c0.283,0,0.48-0.184,0.595-0.552
		s0.198-0.665,0.255-0.892c0-0.51-0.1-1.076-0.297-1.7c-0.199-0.622-0.412-1.2-0.637-1.741c-0.227-0.537-0.425-0.977-0.596-1.316
		c-0.17-0.34-0.227-0.51-0.17-0.51c0-0.17-0.213-0.623-0.637-1.359c-0.425-0.734-0.778-1.33-1.061-1.783l-0.257-0.51
		c0-0.057,0.087-0.17,0.257-0.339l-3.06,1.188c-0.339,0.113-0.65,0.227-0.935,0.339l0.596-0.339l3.059-1.188
		c-0.229,0-0.383-0.015-0.467-0.044c-0.087-0.027-0.214-0.041-0.385-0.041c-0.452,0-0.934,0.156-1.443,0.466
		c-0.51,0.312-1.188,0.468-2.039,0.468c-0.168,0-0.284-0.027-0.338-0.085c0,0.339-0.385,0.709-1.146,1.104
		c-0.766,0.397-1.615,0.778-2.55,1.146c-0.935,0.37-1.812,0.68-2.634,0.934c-0.821,0.256-1.287,0.412-1.4,0.469
		c-1.019,0.34-1.826,0.679-2.421,1.02c-0.595,0.339-1.104,0.637-1.53,0.891c-0.424,0.256-0.806,0.455-1.145,0.595
		c-0.34,0.142-0.766,0.212-1.276,0.212c0.171-0.17,0.396-0.31,0.681-0.424l1.273-0.681c0.453-0.225,0.877-0.424,1.274-0.593
		c0.396-0.17,0.596-0.311,0.596-0.426c-0.624,0.229-1.403,0.595-2.337,1.104c-0.934,0.51-1.827,0.766-2.676,0.766
		c0,0.169-0.27,0.381-0.807,0.637c-0.539,0.254-1.133,0.51-1.783,0.764c-0.652,0.256-1.189,0.469-1.613,0.639
		c-0.426,0.169-0.723,0.283-0.895,0.34c0.227-1.586,0.355-3.213,0.384-4.885c0.028-1.67,0.212-3.355,0.551-5.055l0.425-2.209
		c0.228-1.02,0.396-1.881,0.51-2.59c0.113-0.708,0.17-1.486,0.17-2.337V7.899c0-0.793,0.043-1.57,0.127-2.336
		c0.086-0.764,0.27-1.43,0.555-1.996"/>
	<path clip-path="url(#SVGID_2_)" fill="#512178" d="M141.601,24.209l-3.823,1.614l-0.765,0.34l0.255-0.254
		c-0.229,0-0.199-0.071,0.085-0.213c0.281-0.142,1.67-0.666,4.162-1.572l0.256-0.084C141.712,24.097,141.656,24.154,141.601,24.209"
		/>
	<path clip-path="url(#SVGID_2_)" fill="#512178" d="M142.363,23.955h-0.339c0.057,0,0.14-0.057,0.256-0.171
		c-0.058,0.059-0.145,0.086-0.256,0.086l0.425-0.171c0.171-0.055,0.382-0.153,0.637-0.298c0.255-0.14,0.522-0.238,0.808-0.297
		c0.111-0.112,0.254-0.195,0.424-0.254l0.255-0.17l0.425-0.169c0.112-0.113,0.27-0.185,0.469-0.212
		c0.197-0.029,0.38-0.1,0.551-0.213l0.339-0.17c0.057-0.057,0.171-0.086,0.342-0.086c0.394-0.113,0.593-0.198,0.593-0.254
		l0.594-0.256l0.257-0.085c0.112,0,0.198-0.027,0.255-0.085c0.111,0,0.224-0.055,0.34-0.169c0.281-0.057,0.679-0.226,1.188-0.51
		c0.113,0,0.213-0.027,0.298-0.085c0.085-0.057,0.156-0.086,0.213-0.086l1.188-0.51c0.056,0,0.127-0.014,0.214-0.041
		c0.084-0.029,0.152-0.045,0.211-0.045c-0.794,0.342-1.275,0.568-1.443,0.682c-0.17,0.113-0.341,0.17-0.51,0.17
		c-0.227,0.115-0.369,0.169-0.424,0.169l-1.275,0.51c-0.17,0.058-0.285,0.114-0.34,0.171c-0.059,0.055-0.199,0.141-0.424,0.254
		l0.424-0.084l-1.105,0.51c-0.055,0-0.383,0.127-0.976,0.381c-0.595,0.256-1.063,0.441-1.402,0.553L142.363,23.955z"/>
	<path clip-path="url(#SVGID_2_)" fill="#512178" d="M209.214,48.716c-0.283-0.367-0.37-0.637-0.254-0.807
		c-0.283-0.113-0.467-0.128-0.554-0.043c-0.083,0.086-0.241,0.127-0.466,0.127c-0.116-0.168-0.227-0.297-0.342-0.383
		c-0.111-0.083-0.111-0.238,0-0.465c-0.282,0-0.479,0.084-0.595,0.254c-0.112,0.17-0.253,0.17-0.424,0
		c-0.057-0.113,0.013-0.227,0.211-0.34c0.198-0.112,0.213-0.254,0.046-0.426c-0.059,0.115-0.128,0.156-0.212,0.129
		c-0.087-0.027-0.185-0.014-0.3,0.043c0-0.283-0.069-0.496-0.211-0.639c-0.144-0.14-0.296-0.254-0.466-0.339
		c-0.171-0.085-0.329-0.198-0.471-0.339c-0.14-0.143-0.213-0.355-0.213-0.637c-0.452,0-0.803-0.1-1.061-0.298
		c-0.254-0.198-0.521-0.242-0.808-0.13c0.059-0.225,0.198-0.451,0.425-0.678c0.229-0.226,0.197-0.424-0.083-0.596l-1.273,0.34
		c0.055-0.113,0.083-0.226,0.083-0.34c-0.283,0.114-0.537,0.254-0.767,0.426c-0.227,0.17-5.18,2.549-14.862,7.135
		c-3.341,1.188-5.833,1.869-7.476,2.041c-0.849,0.113-1.57,0.166-2.166,0.166c-0.595,0-1.146-0.012-1.655-0.041
		c-0.511-0.027-0.992-0.07-1.444-0.125c-0.455-0.059-0.992-0.143-1.615-0.258c-0.283-0.225-0.523-0.564-0.722-1.02
		c-0.198-0.451-0.298-0.764-0.298-0.934c2.551-0.283,4.955-0.65,7.221-1.105c2.265-0.451,4.473-1.158,6.627-2.122
		c1.81-0.906,3.511-2.052,5.095-3.441c1.585-1.386,2.521-3.07,2.805-5.054c0.17-1.528,0.082-2.974-0.255-4.333
		c-0.341-1.359-0.595-2.718-0.766-4.076c-0.282-2.265-0.779-4.177-1.484-5.734c-0.712-1.557-2.141-2.562-4.291-3.016
		c0.111,0.283,0.31,0.454,0.596,0.51c0.281,0.058,0.425,0.228,0.425,0.51c-0.512-0.056-1.219-0.24-2.124-0.553
		c-0.908-0.311-1.73-0.382-2.463-0.211c0,0.056,0.055,0.085,0.167,0.085h0.683c0.109,0.113,0.308,0.142,0.595,0.085
		c0.281-0.057,0.451,0.057,0.508,0.34c-1.302,0.17-2.69,0.283-4.162,0.338c-1.474,0.059-2.634,0.455-3.481,1.19
		c0.622-0.112,1.215-0.241,1.782-0.382c0.565-0.141,1.16-0.155,1.784-0.043c-5.775,0.68-9.824,3.029-12.146,7.049
		c-0.849,1.078-1.57,2.266-2.166,3.568c-0.596,1.304-1.146,2.635-1.656,3.992c-1.133-0.112-2.152-0.238-3.059-0.382
		c-0.906-0.14-1.812-0.183-2.719-0.127c0.171,0.113,0.396,0.171,0.681,0.171s0.538,0.084,0.764,0.254
		c-0.51,0-0.921-0.055-1.231-0.17c-0.311-0.111-0.608-0.142-0.892-0.084c0.114,0.338,0.327,0.537,0.637,0.594
		c0.312,0.057,0.552,0.199,0.723,0.425c-0.226,0.114-0.454,0.101-0.681-0.044c-0.225-0.14-0.396-0.127-0.51,0.044
		c0,0.114-0.055,0.284-0.169,0.51l-0.255,0.51c0.284,1.134,0.396,2.266,0.34,3.397c-0.056,1.133,0.057,2.321,0.34,3.568
		c0,0.34,0.029,0.793,0.085,1.358c0.056,0.566,0.227,0.992,0.511,1.273c0.848,0.227,1.682,0.441,2.505,0.637
		c0.819,0.199,1.712,0.355,2.675,0.469c0.396,2.039,0.906,3.965,1.529,5.775c0.622,1.814,1.487,3.398,2.59,4.758
		c1.105,1.359,2.493,2.406,4.163,3.143s3.696,1.049,6.073,0.936c2.547-0.17,5.139-0.666,7.773-1.488
		c2.634-0.818,4.968-1.682,7.007-2.59h-0.342c0-0.17,0.115-0.197,0.342-0.086c0-0.055,0.055-0.084,0.171-0.084
		c0-0.172,0.113-0.197,0.341-0.086c1.527-0.791,3.058-1.57,4.585-2.336c1.527-0.764,2.988-1.584,4.374-2.463
		c1.389-0.877,2.688-1.838,3.906-2.889c1.219-1.047,2.278-2.279,3.188-3.695C209.753,49.326,209.498,49.085,209.214,48.716
		 M180.588,30.921c0.226-0.227,0.522-0.354,0.892-0.383c0.369-0.027,0.638-0.099,0.808-0.213l0.254-0.084
		c0.055,0.227-0.028,0.369-0.254,0.424c0.111,0.113,0.111,0.17,0,0.17c0,0.057-0.056,0.057-0.17,0c-0.115-0.057-0.171-0.057-0.171,0
		l-0.849,0.34h-0.255c0.17-0.055,0.255-0.141,0.255-0.254c-0.284,0.057-0.44,0.113-0.467,0.168
		c-0.029,0.059-0.073,0.115-0.128,0.171C180.503,31.089,180.531,30.978,180.588,30.921 M177.784,32.108
		c0-0.112,0.055-0.168,0.171-0.168h0.34c0.112-0.057,0.112-0.086,0-0.086c0.169-0.057,0.253-0.098,0.253-0.127
		s0.058-0.07,0.171-0.129c0,0.114,0.027,0.199,0.085,0.256c0.113-0.225,0.184-0.311,0.212-0.256c0.028,0.059,0.099,0.059,0.214,0
		c0.055-0.225,0.112-0.311,0.17-0.254c0.055,0.114,0.14,0.17,0.254,0.17v-0.426h0.34c0.112,0.059,0.227,0.059,0.34,0v0.426
		c-0.284,0.058-0.454,0.084-0.51,0.084h-0.341l-0.253,0.256h-0.34c-0.058,0.057-0.144,0.086-0.256,0.086
		c-0.114,0-0.199,0.014-0.254,0.041c-0.058,0.029-0.113,0.042-0.171,0.042c-0.113,0-0.198,0.03-0.254,0.085
		c-0.058,0.059-0.144,0.086-0.255,0.086c-0.115,0-0.199-0.027-0.256-0.086C177.614,32.054,177.728,32.054,177.784,32.108
		 M173.964,34.996c0.168-0.226,0.424-0.451,0.764-0.679c-0.059,0-0.127,0.016-0.213,0.043c-0.084,0.03-0.157,0.043-0.213,0.043
		c0.227-0.17,0.396-0.326,0.51-0.468c0.113-0.14,0.284-0.239,0.511-0.298l-0.086,0.171c0.171-0.171,0.255-0.283,0.255-0.339
		c0.17,0.056,0.368-0.086,0.595-0.427c0.056-0.112,0.255-0.254,0.595-0.425c0.339-0.168,0.594-0.254,0.764-0.254l-0.678,0.34
		c-0.227,0.113-0.397,0.227-0.51,0.339l-0.511,0.595c-0.113,0.059-0.2,0.113-0.255,0.171l-0.511,0.253l-0.083,0.256
		c-0.059,0.057-0.086,0.114-0.086,0.17c-0.17,0.115-0.41,0.327-0.721,0.639c-0.313,0.311-0.555,0.496-0.723,0.551
		C173.594,35.451,173.794,35.225,173.964,34.996 M173.454,36.101c0.054-0.168,0.14-0.283,0.253-0.338
		c0.058-0.058,0.113-0.113,0.171-0.172c0,0.059-0.03,0.114-0.084,0.172l0.848-0.426c0.17-0.396,0.396-0.621,0.681-0.68l0.253-0.34
		l-0.253,0.086l0.51-0.51c0.168-0.057,0.396-0.143,0.677-0.256c0.285-0.112,0.482-0.283,0.596-0.51l0.34-0.168
		c0.17-0.057,0.283-0.171,0.34-0.342c0.227,0,0.438-0.098,0.637-0.297c0.198-0.197,0.411-0.268,0.638-0.213l0.424-0.254
		c0.114,0.057,0.198,0.086,0.257,0.086c0.111-0.113,0.239-0.184,0.381-0.213c0.141-0.029,0.269-0.098,0.383-0.213
		c0.34,0,0.736-0.141,1.189-0.426c0.17,0,0.383-0.027,0.637-0.082c0.253-0.057,0.524-0.143,0.808-0.256
		c0.28-0.113,0.552-0.154,0.807-0.128c0.253,0.029,0.523-0.013,0.807-0.126h-1.104c-0.286,0-0.428,0.027-0.428,0.082
		c-0.111,0.115-0.199,0.158-0.253,0.129c-0.056-0.029-0.112-0.043-0.171-0.043c0.396-0.168,0.622-0.283,0.683-0.34
		c0.169,0,0.28-0.027,0.337-0.084l1.443,0.256c0.226,0,0.354-0.029,0.384-0.086c0.026-0.057,0.101-0.086,0.212-0.086
		c0.286,0,0.567,0.057,0.85,0.172c0.285,0.113,0.539,0.113,0.765,0c0.226,0.056,0.342,0.254,0.342,0.592
		c0.11,0.285,0.124,0.498,0.042,0.639c-0.084,0.143-0.13,0.241-0.13,0.296c-0.227,0.397-0.835,0.838-1.826,1.317
		c-0.989,0.482-2.193,0.977-3.608,1.487c-1.416,0.509-2.932,1.019-4.546,1.528c-1.611,0.511-3.185,0.963-4.715,1.359L173.454,36.101
		z M165.554,38.396c0-0.453,0.098-0.893,0.296-1.316s0.382-0.834,0.553-1.232L165.554,38.396z"/>
	<path clip-path="url(#SVGID_2_)" fill="#512178" d="M100.851,92.087l-1.156-1.219c-0.295,0.365-0.669,0.654-1.124,0.869
		c-0.455,0.219-0.97,0.33-1.544,0.33c-0.505,0-0.957-0.098-1.355-0.293c-0.399-0.197-0.734-0.461-1.009-0.789
		c-0.262-0.318-0.462-0.684-0.608-1.09c-0.146-0.426-0.221-0.863-0.221-1.309c0-0.463,0.074-0.904,0.221-1.332
		c0.148-0.432,0.357-0.807,0.629-1.137c0.275-0.332,0.611-0.59,1.01-0.777c0.399-0.191,0.854-0.285,1.355-0.285
		c0.575,0,1.072,0.104,1.492,0.314c0.42,0.209,0.779,0.498,1.07,0.863l1.242-1.199c-0.014-0.012-0.027-0.023-0.039-0.035
		l0.016-0.018c-0.448-0.502-0.986-0.9-1.616-1.195c-0.632-0.295-1.361-0.443-2.187-0.443c-0.757,0-1.447,0.139-2.07,0.41
		c-0.623,0.277-1.162,0.648-1.617,1.115c-0.455,0.469-0.811,1.02-1.062,1.648c-0.253,0.631-0.38,1.303-0.38,2.02
		c0,0.754,0.119,1.453,0.359,2.09c0.059,0.162,0.125,0.316,0.199,0.463c0.22,0.467,0.5,0.873,0.842,1.227
		c0.44,0.455,0.979,0.814,1.619,1.072c0.637,0.262,1.348,0.389,2.131,0.389c0.842,0,1.58-0.148,2.217-0.451
		c0.637-0.301,1.174-0.695,1.608-1.188l-0.038-0.037C100.839,92.097,100.845,92.091,100.851,92.087"/>
	<polygon clip-path="url(#SVGID_2_)" fill="#512178" points="104.802,79.792 102.678,79.792 102.678,81.917 102.702,81.917 
		102.702,81.968 104.823,81.968 104.823,79.845 104.802,79.845 	"/>
	<polygon clip-path="url(#SVGID_2_)" fill="#512178" points="104.696,83.66 102.806,83.66 102.806,93.433 102.827,93.433 
		102.827,93.484 104.718,93.484 104.718,83.71 104.696,83.71 	"/>
	<path clip-path="url(#SVGID_2_)" fill="#512178" d="M124.489,92.595l-0.859-1.16c-0.24,0.225-0.479,0.395-0.717,0.504
		c-0.238,0.113-0.541,0.168-0.902,0.168c-0.449,0-0.797-0.146-1.04-0.439c-0.058-0.066-0.104-0.152-0.149-0.246
		c-0.13-0.312-0.197-0.75-0.197-1.322v-4.811h2.858V83.71h-0.022V83.66h-2.836v-3.143h-0.023v-0.051h-1.889v3.193h-1.766v1.578
		h0.023v0.051h1.742v4.949c0,0.898,0.139,1.619,0.415,2.16c0.095,0.195,0.203,0.367,0.332,0.518c0.482,0.561,1.242,0.84,2.279,0.84
		c0.588,0,1.096-0.086,1.523-0.262c0.427-0.176,0.844-0.457,1.249-0.85l-0.031-0.041C124.482,92.601,124.485,92.597,124.489,92.595"
		/>
	<polygon clip-path="url(#SVGID_2_)" fill="#512178" points="127.913,83.66 126.024,83.66 126.024,93.433 126.046,93.433 
		126.046,93.484 127.938,93.484 127.938,83.71 127.913,83.71 	"/>
	<polygon clip-path="url(#SVGID_2_)" fill="#512178" points="128.019,79.792 125.898,79.792 125.898,81.917 125.921,81.917 
		125.921,81.968 128.042,81.968 128.042,79.845 128.019,79.845 	"/>
	<path clip-path="url(#SVGID_2_)" fill="#512178" d="M150.589,84.542c-0.619-0.742-1.566-1.111-2.84-1.111
		c-0.445,0-0.85,0.053-1.207,0.168c-0.357,0.109-0.668,0.25-0.934,0.42c-0.27,0.168-0.492,0.35-0.674,0.555
		c-0.173,0.191-0.32,0.371-0.444,0.533l-0.06-1.396h-0.021l-0.002-0.051h-1.805c0.014,0.354,0.021,0.684,0.021,1v1.121v7.652h0.021
		v0.051h1.892v-4.539c0-0.48,0.048-0.943,0.147-1.398c0.098-0.453,0.257-0.859,0.473-1.219c0.217-0.359,0.507-0.648,0.872-0.871
		c0.364-0.223,0.817-0.338,1.365-0.338c0.713,0,1.267,0.215,1.659,0.641c0.098,0.107,0.179,0.225,0.252,0.359
		c0.208,0.408,0.314,0.939,0.314,1.6v5.715h0.021v0.051h1.893v-5.865c0-0.957-0.175-1.764-0.523-2.426
		C150.891,84.958,150.75,84.74,150.589,84.542"/>
</g>
</svg>
